/* XPM */
static char * connect_xpm[] = {
"32 32 545 2",
"  	c None",
". 	c #8E8E8E",
"+ 	c #8D8D8D",
"@ 	c #8A8A8A",
"# 	c #878787",
"$ 	c #848484",
"% 	c #818181",
"& 	c #7E7E7E",
"* 	c #7B7B7B",
"= 	c #787878",
"- 	c #A6A6A5",
"; 	c #E0E1DE",
"> 	c #DFE1DD",
", 	c #DFE0DD",
"' 	c #DEDFDD",
") 	c #DEDFDC",
"! 	c #DDDEDB",
"~ 	c #DCDDDB",
"{ 	c #DBDCDA",
"] 	c #DBDCD9",
"^ 	c #DADBD8",
"/ 	c #D9DAD7",
"( 	c #D9DAD8",
"_ 	c #A1A2A1",
": 	c #666666",
"< 	c #B4B4B4",
"[ 	c #E2E5E2",
"} 	c #748DB9",
"| 	c #7C94BC",
"1 	c #7C94BB",
"2 	c #8299BD",
"3 	c #8198BD",
"4 	c #8097BD",
"5 	c #7F96BC",
"6 	c #7E96BB",
"7 	c #7E95BA",
"8 	c #7D94BA",
"9 	c #7A91B8",
"0 	c #A0ADBF",
"a 	c #C8CBC6",
"b 	c #BBBCBB",
"c 	c #BABAB8",
"d 	c #D9DDDD",
"e 	c #7F97BF",
"f 	c #8BA1C5",
"g 	c #89A0C4",
"h 	c #889FC4",
"i 	c #879EC3",
"j 	c #859DC2",
"k 	c #849CC1",
"l 	c #829AC0",
"m 	c #8199C0",
"n 	c #8098BF",
"o 	c #7E97BE",
"p 	c #7D96BE",
"q 	c #738EB9",
"r 	c #8C9FBB",
"s 	c #C0C2BD",
"t 	c #C3C4C2",
"u 	c #BEBFBD",
"v 	c #CFD5D9",
"w 	c #7791BD",
"x 	c #829BC2",
"y 	c #819AC1",
"z 	c #8099C0",
"A 	c #7E98C0",
"B 	c #7D96BF",
"C 	c #7B95BE",
"D 	c #7994BD",
"E 	c #7893BD",
"F 	c #7792BC",
"G 	c #7691BB",
"H 	c #7490BB",
"I 	c #6E8BB8",
"J 	c #8599B9",
"K 	c #B9BCB6",
"L 	c #C8C9C8",
"M 	c #C3C3C1",
"N 	c #BFC9D2",
"O 	c #718EBB",
"P 	c #7A95BF",
"Q 	c #7993BE",
"R 	c #7893BE",
"S 	c #7692BD",
"T 	c #7590BC",
"U 	c #738FBB",
"V 	c #728EBB",
"W 	c #708DBA",
"X 	c #6F8CB9",
"Y 	c #5F7FB1",
"Z 	c #4E71A9",
"` 	c #4066A2",
" .	c #8095B6",
"..	c #B8BAB5",
"+.	c #CACAC9",
"@.	c #656565",
"#.	c #C6C6C5",
"$.	c #AFBDCC",
"%.	c #6D8BBB",
"&.	c #728FBD",
"*.	c #718EBC",
"=.	c #708DBC",
"-.	c #6E8CBB",
";.	c #6D8BBA",
">.	c #6B8AB9",
",.	c #6A88B9",
"'.	c #577AB0",
").	c #4068A4",
"!.	c #3962A1",
"~.	c #7890B6",
"{.	c #B8B9B5",
"].	c #C9CBC7",
"^.	c #616161",
"/.	c #9B9B9B",
"(.	c #A0A09E",
"_.	c #A2A2A0",
":.	c #A1A1A0",
"<.	c #ABACAB",
"[.	c #9EA4A8",
"}.	c #8F97A4",
"|.	c #8E96A4",
"1.	c #8C94A2",
"2.	c #8A92A1",
"3.	c #8B94A2",
"4.	c #8C95A2",
"5.	c #8993A0",
"6.	c #7F8A9A",
"7.	c #4F6C9A",
"8.	c #3A63A3",
"9.	c #718CB4",
"0.	c #BABCB7",
"a.	c #CBCDCA",
"b.	c #5E5E5E",
"c.	c #B1B2B0",
"d.	c #EBECE9",
"e.	c #E2E6E4",
"f.	c #E2E5E4",
"g.	c #E1E5E3",
"h.	c #E0E4E3",
"i.	c #E0E4E2",
"j.	c #E0E3E1",
"k.	c #DFE3E1",
"l.	c #DEE1E0",
"m.	c #DCE0DE",
"n.	c #DBDEDD",
"o.	c #E0E2DE",
"p.	c #E4E6E2",
"q.	c #9EA2A8",
"r.	c #3B65A6",
"s.	c #6C87B3",
"t.	c #CFD3CB",
"u.	c #CCCECB",
"v.	c #606060",
"w.	c #BABBBA",
"x.	c #D7DCDD",
"y.	c #728CBA",
"z.	c #7B94BD",
"A.	c #7993BD",
"B.	c #7992BD",
"C.	c #7891BC",
"D.	c #7A92BD",
"E.	c #7C94BD",
"F.	c #7B93BD",
"G.	c #7991BC",
"H.	c #7891BB",
"I.	c #6E89B7",
"J.	c #9CAABD",
"K.	c #C0C2BE",
"L.	c #ADB0B4",
"M.	c #3D66A9",
"N.	c #3C66A9",
"O.	c #6782B2",
"P.	c #CED2CB",
"Q.	c #CECFCC",
"R.	c #626260",
"S.	c #BFC0BE",
"T.	c #CCD2D7",
"U.	c #7C95BE",
"V.	c #849CC2",
"W.	c #839BC1",
"X.	c #819AC0",
"Y.	c #7C95BD",
"Z.	c #7A94BC",
"`.	c #6E8AB6",
" +	c #8FA0B9",
".+	c #BABBB8",
"++	c #B3B7BA",
"@+	c #3F68A7",
"#+	c #3D68AB",
"$+	c #6180B1",
"%+	c #CDD1CA",
"&+	c #CFD1CD",
"*+	c #626462",
"=+	c #C2C3C2",
"-+	c #BBC5D1",
";+	c #7F98C0",
">+	c #7C96BF",
",+	c #7892BC",
"'+	c #7590BB",
")+	c #738FBA",
"!+	c #728EBA",
"~+	c #6382B3",
"{+	c #899CB9",
"]+	c #B6B9B5",
"^+	c #B9BDC0",
"/+	c #4369A6",
"(+	c #3E69AE",
"_+	c #5B7BB1",
":+	c #CDD0C9",
"<+	c #D0D2CE",
"[+	c #C8C9C7",
"}+	c #AAB8CB",
"|+	c #7490BD",
"1+	c #7591BD",
"2+	c #7490BC",
"3+	c #728FBC",
"4+	c #6F8DBA",
"5+	c #6E8BB9",
"6+	c #6585B5",
"7+	c #4E72AA",
"8+	c #3F67A2",
"9+	c #38619F",
"0+	c #8296B7",
"a+	c #B6B8B4",
"b+	c #BFC2C3",
"c+	c #4569A4",
"d+	c #3F6AB1",
"e+	c #5678B1",
"f+	c #CCD0C8",
"g+	c #D0D3CE",
"h+	c #686A68",
"i+	c #CDCDCC",
"j+	c #9AAAC5",
"k+	c #6F8DBC",
"l+	c #6E8CBC",
"m+	c #6C8ABA",
"n+	c #6A89BA",
"o+	c #6988B9",
"p+	c #6383B6",
"q+	c #486DA9",
"r+	c #3962A2",
"s+	c #7B92B6",
"t+	c #B6B8B5",
"u+	c #C1C3C4",
"v+	c #5672A0",
"w+	c #5376B2",
"x+	c #5675B0",
"y+	c #CBCFC8",
"z+	c #D2D5D0",
"A+	c #686968",
"B+	c #D3D3D2",
"C+	c #91A3C0",
"D+	c #6888BA",
"E+	c #6787B9",
"F+	c #6586B8",
"G+	c #6485B8",
"H+	c #6384B7",
"I+	c #5579B1",
"J+	c #3C66A5",
"K+	c #3A63A4",
"L+	c #758EB5",
"M+	c #C9CCC6",
"N+	c #C7C9C5",
"O+	c #AEB1AC",
"P+	c #CCCFC8",
"Q+	c #CCD0C9",
"R+	c #CBCFC7",
"S+	c #CACEC7",
"T+	c #D4D7D1",
"U+	c #686868",
"V+	c #888888",
"W+	c #D5D5D4",
"X+	c #899DBE",
"Y+	c #6283B9",
"Z+	c #6082B8",
"`+	c #5F81B8",
" @	c #5D80B7",
".@	c #5D7FB7",
"+@	c #4B72AE",
"@@	c #3B65A7",
"#@	c #6F8AB4",
"$@	c #CFD2CB",
"%@	c #C8C9C6",
"&@	c #9D9E9B",
"*@	c #BBBDB9",
"=@	c #B9BCB8",
"-@	c #B8BBB8",
";@	c #B8B9B6",
">@	c #B7B8B5",
",@	c #B3B4B1",
"'@	c #5E605E",
")@	c #D7D8D5",
"!@	c #849ABD",
"~@	c #5A7EB8",
"{@	c #597CB7",
"]@	c #577BB6",
"^@	c #5378B5",
"/@	c #446CAD",
"(@	c #3C66AA",
"_@	c #6A85B3",
":@	c #CDD1C9",
"<@	c #C8CAC7",
"[@	c #585858",
"}@	c #4D4D4D",
"|@	c #505250",
"1@	c #424342",
"2@	c #383A38",
"3@	c #424242",
"4@	c #4A4A4A",
"5@	c #D6D7D4",
"6@	c #7D96BB",
"7@	c #5379B6",
"8@	c #5177B5",
"9@	c #4871B1",
"0@	c #3F69AD",
"a@	c #3D68AC",
"b@	c #6482B3",
"c@	c #C9CBC8",
"d@	c #686A67",
"e@	c #6C6F6A",
"f@	c #636663",
"g@	c #757575",
"h@	c #939393",
"i@	c #A1A1A1",
"j@	c #ACACAC",
"k@	c #B0B0B0",
"l@	c #A0A0A0",
"m@	c #436DB1",
"n@	c #3F6AAF",
"o@	c #3E69AF",
"p@	c #5F7EB3",
"q@	c #CCCEC9",
"r@	c #737572",
"s@	c #696E69",
"t@	c #3B3C3B",
"u@	c #0A0A0A",
"v@	c #0D0D0D",
"w@	c #262626",
"x@	c #777777",
"y@	c #AEAEAE",
"z@	c #B2B2B2",
"A@	c #AAAAAA",
"B@	c #ADADAD",
"C@	c #828280",
"D@	c #D8D9D6",
"E@	c #718CB8",
"F@	c #3F6BB1",
"G@	c #597AB2",
"H@	c #CCCFCB",
"I@	c #6B6C6A",
"J@	c #797C78",
"K@	c #7B7D7A",
"L@	c #7C7E7B",
"M@	c #7E807D",
"N@	c #818380",
"O@	c #696A68",
"P@	c #808180",
"Q@	c #8298BB",
"R@	c #6F8AB8",
"S@	c #6E8AB7",
"T@	c #6D89B7",
"U@	c #6D88B7",
"V@	c #6D88B6",
"W@	c #6E88B4",
"X@	c #CBCEC7",
"Y@	c #CED1CC",
"Z@	c #767676",
"`@	c #9D9D9D",
" #	c #A0A09F",
".#	c #B9BBB5",
"+#	c #9C9C9C",
"@#	c #ACAFAA",
"##	c #575757",
"$#	c #B1B1B1",
"%#	c #7F807F",
"&#	c #D9DBD7",
"*#	c #D4D7CF",
"=#	c #D3D6CF",
"-#	c #D2D6CE",
";#	c #D2D5CE",
">#	c #D1D5CD",
",#	c #BABDB6",
"'#	c #C4C7C1",
")#	c #C9CDC6",
"!#	c #737473",
"~#	c #A5A5A5",
"{#	c #C6C9C3",
"]#	c #A4A4A4",
"^#	c #A7A8A5",
"/#	c #767875",
"(#	c #7F7F7F",
"_#	c #7A7A7A",
":#	c #797979",
"<#	c #A3A3A2",
"[#	c #B7B8B7",
"}#	c #B5B5B3",
"|#	c #B2B3B1",
"1#	c #AEAFAD",
"2#	c #AAACA9",
"3#	c #A7A8A6",
"4#	c #A6A6A4",
"5#	c #A3A3A3",
"6#	c #A0A19F",
"7#	c #9E9F9D",
"8#	c #9B9D9B",
"9#	c #9B9C9A",
"0#	c #9B9D9A",
"a#	c #9A9C99",
"b#	c #9A9B99",
"c#	c #8B8C8A",
"d#	c #878785",
"e#	c #A1A39F",
"f#	c #9FA19F",
"g#	c #9FA09E",
"h#	c #1C1C1C",
"i#	c #383838",
"j#	c #242424",
"k#	c #515351",
"l#	c #646563",
"m#	c #5D5F5D",
"n#	c #6C6E6B",
"o#	c #6B6D6A",
"p#	c #575856",
"q#	c #50504F",
"r#	c #565655",
"s#	c #666765",
"t#	c #7B7C79",
"u#	c #A3A7A0",
"v#	c #D9DCD4",
"w#	c #D9DCD5",
"x#	c #DADDD6",
"y#	c #DBDED7",
"z#	c #DBDED6",
"A#	c #DBDFD7",
"B#	c #D1D5CE",
"C#	c #555553",
"D#	c #0B0B0B",
"E#	c #616360",
"F#	c #848882",
"G#	c #868884",
"H#	c #81837F",
"I#	c #7A7D79",
"J#	c #787B76",
"K#	c #797C77",
"L#	c #7B7E79",
"M#	c #777B76",
"N#	c #60625E",
"O#	c #5D5E5C",
"P#	c #969696",
"Q#	c #999999",
"R#	c #8E8E8D",
"S#	c #717171",
"T#	c #5A5A5A",
"U#	c #5C5C5C",
"V#	c #5C5E5C",
"W#	c #5D5E5D",
"X#	c #5C5C5A",
"Y#	c #72726F",
"Z#	c #70706E",
"`#	c #6A6A69",
" $	c #646463",
".$	c #606160",
"+$	c #646564",
"@$	c #6D6E6C",
"#$	c #6E706D",
"$$	c #6C6E6C",
"%$	c #696A69",
"&$	c #5A5B59",
"*$	c #515251",
"=$	c #525251",
"-$	c #575756",
";$	c #585A58",
">$	c #AFAFAF",
",$	c #858582",
"'$	c #CCCEC7",
")$	c #CACDC6",
"!$	c #CBCDC6",
"~$	c #CACDC7",
"{$	c #CBCDC7",
"]$	c #CCCDC7",
"^$	c #D3D6CE",
"/$	c #D9DDD5",
"($	c #D3D5CF",
"_$	c #D0D4CD",
":$	c #9DA19B",
"<$	c #ABAEA9",
"[$	c #9E9E9E",
"}$	c #9D9D9C",
"|$	c #B0B3AE",
"1$	c #9E9F9E",
"2$	c #B0B3AF",
"3$	c #636363",
"4$	c #959595",
"5$	c #545454",
"6$	c #71716F",
"7$	c #B4B6B3",
"8$	c #A8A8A8",
"9$	c #A0A19E",
"0$	c #A2A3A1",
"a$	c #A3A4A2",
"b$	c #A4A5A3",
"c$	c #A2A3A0",
"d$	c #A7A7A7",
"e$	c #C7CAC3",
"f$	c #ADAEAC",
"g$	c #737672",
"h$	c #595959",
"i$	c #1F1F1F",
"j$	c #90928D",
"k$	c #A3A5A0",
"l$	c #AFB0AC",
"m$	c #A3A4A1",
"n$	c #AAABA7",
"o$	c #A5A7A2",
"p$	c #A1A39E",
"q$	c #C2C5BE",
"r$	c #ACAFA9",
"s$	c #A6A8A4",
"t$	c #A7A9A5",
"u$	c #A5AAA4",
"v$	c #292929",
"w$	c #9B9E99",
"x$	c #BBBFB8",
"y$	c #BBBEB9",
"z$	c #BBBEB7",
"A$	c #BABDB8",
"B$	c #BABEB8",
"C$	c #BABEB9",
"D$	c #BCBFB8",
"E$	c #BCC0B8",
"F$	c #BCC0B9",
"G$	c #BDC0BA",
"H$	c #BDC1BA",
"I$	c #BDC1BB",
"J$	c #BEC2BB",
"K$	c #B1B5AF",
"L$	c #555555",
"M$	c #4F4F4F",
"N$	c #4E4E4E",
"O$	c #4B4B4B",
"P$	c #484848",
"Q$	c #474747",
"R$	c #464646",
"S$	c #444444",
"T$	c #434343",
"                    . + + + + + + + @ # $ $ % & * = =           ",
"                  - ; > > > , ' ) ) ! ~ { ] ] ^ / ( _ :         ",
"                  < [ } | 1 2 3 4 4 5 6 6 7 8 9 0 a b :         ",
"                  c d e f g h i j k l m n o p q r s t :         ",
"                  u v w x y z A B C D E F G H I J K L :         ",
"                  M N O P Q R S T U V W X Y Z `  ...+.@.        ",
"                  #.$.%.&.*.=.-.;.>.,.'.).!.!.!.~.{.].^.        ",
"    /.(._._._._.:.<.[.}.|.1.2.3.4.5.6.7.8.8.8.8.9.0.a.b.        ",
"  $ c.d.e.e.f.f.g.h.i.j.k.k.l.m.n.o.p.q.r.r.r.r.s.t.u.v.        ",
"  $ w.x.y.z.A.B.C.D.E.F.D.G.G.H.I.J.K.L.M.N.N.N.O.P.Q.R.        ",
"  $ S.T.U.h i j V.W.X.n o p Y.Z.`. +.+++@+#+#+#+$+%+&+*+        ",
"  $ =+-+A.z ;+B >+C A.,+G '+)+!+~+{+]+^+/+(+(+(+_+:+<+@.        ",
"  $ [+}+|+R S 1+2+3+O 4+5+6+7+8+9+0+a+b+c+d+d+d+e+f+g+h+        ",
"  $ i+j+k+=.l+%.m+n+o+p+q+r+r+r+r+s+t+u+v+w+w+w+x+y+z+A+        ",
"  $ B+C+n+D+E+F+G+H+I+J+K+K+K+K+K+L+M+N+O+P+Q+y+R+S+T+U+        ",
"  V+W+X+Y+Z+`+ @.@+@@@@@@@@@@@@@@@#@$@%@&@*@=@-@;@>@,@'@        ",
"  $ )@!@~@{@]@^@/@(@(@(@(@(@N.N.N._@:@<@[@}@|@1@2@3@4@          ",
"  & 5@6@7@8@9@0@a@a@a@a@a@a@a@a@a@b@Q+c@d@e@f@g@h@i@j@k@l@      ",
"  * )@G m@n@o@o@o@o@o@o@o@o@o@o@o@p@Q+q@r@s@t@u@v@w@x@y@z@A@B@  ",
"  C@D@E@F@F@F@F@F@F@F@F@F@F@F@F@F@G@S+H@I@J@K@L@M@N@O@      k@  ",
"  P@D@Q@R@R@S@S@S@T@T@T@U@U@U@V@V@W@X@Y@Z@`@ #.#`@+#@###+ $#j@  ",
"  %#&#*#=#-#;#>#t.$@,#'#:+Q+y+R+S+)#)#<+!#~#~#{#]#~#^#/#(#_#    ",
"  :#<#[#}#|#1#2#3#4#5#6#(.7#8#9#0#a#b#c#d#7#7#.#e#f#g#0#h#      ",
"        i#j#k#l#m#n#o#o#o#p#q#r#s#t#u#Q+v#w#x#y#z#z#A#B#C#      ",
"          D#E#F#G#H#I#J#K#L#M#N#O#V+P#Q#+#R#S#T#U#V#W#X#T#      ",
"    Y#Z#`# $.$+$A+@$#$$$%$.$&$*$=$C#-$;$  j@>$B@                ",
"  ^.,$X@X@'$X@'$)$!$~${${$]$X@^$/$($_$:$4@    >$                ",
"  ^.<$[$[$[$[$[$[$[$[$[$[$[$[$}$|$1$[$2$3$4$]#B@                ",
"5$6$7$8$8$9$0$0$0$0$a$b$c$d$8$8$e$d$8$f$g$h$i$                  ",
"5$j$O+k$k$l$m$m$m$m$m$m$n$o$p$p$q$r$s$t$u$v$                    ",
"5$w$x$y$z$A$B$C$x$x$D$E$F$G$H$H$H$I$J$J$K$L$                    ",
"  M$N$O$P$P$P$P$Q$Q$R$S$T$S$R$R$Q$P$P$P$Q$                      "};
