/* XPM */
static char * deb_xpm[] = {
"16 18 261 2",
"  	c None",
". 	c #FEFAF9",
"+ 	c #FCFAF7",
"@ 	c #FDFCFA",
"# 	c #FEF5F7",
"$ 	c #F2CADB",
"% 	c #DA7199",
"& 	c #CC3061",
"* 	c #C31A4E",
"= 	c #C71D52",
"- 	c #D45C84",
"; 	c #DB96B2",
"> 	c #EFC4D4",
", 	c #FCEBF0",
"' 	c #FCF9F8",
") 	c #FAFEFA",
"! 	c #F9FEFA",
"~ 	c #F6FDF8",
"{ 	c #FEFAFA",
"] 	c #FADEEA",
"^ 	c #D589A1",
"/ 	c #AC3156",
"( 	c #A7103F",
"_ 	c #AD204B",
": 	c #B03058",
"< 	c #B73A62",
"[ 	c #AB3358",
"} 	c #A32349",
"| 	c #AD224D",
"1 	c #C45276",
"2 	c #F2C0D1",
"3 	c #F4FEFB",
"4 	c #F4F9F4",
"5 	c #FCE5EF",
"6 	c #CB6A87",
"7 	c #9E1841",
"8 	c #AB1A47",
"9 	c #D26284",
"0 	c #EEB1C5",
"a 	c #FEDEE9",
"b 	c #FEE8F4",
"c 	c #FDD5E3",
"d 	c #EAA9C1",
"e 	c #C13963",
"f 	c #AA083A",
"g 	c #AC2F55",
"h 	c #F9D1DF",
"i 	c #FCF9FA",
"j 	c #FDDBE6",
"k 	c #DF8DA6",
"l 	c #92193D",
"m 	c #BB4A6C",
"n 	c #ECACC5",
"o 	c #FCEAF0",
"p 	c #FAFCF8",
"q 	c #FAFEF9",
"r 	c #F7FBF6",
"s 	c #FCFCF8",
"t 	c #FDFAF9",
"u 	c #FDD6E5",
"v 	c #C94E74",
"w 	c #A30735",
"x 	c #B24C6C",
"y 	c #FBDEEB",
"z 	c #F2A2BF",
"A 	c #A13051",
"B 	c #C56A87",
"C 	c #FAD5E5",
"D 	c #FEF5F8",
"E 	c #F5FDF9",
"F 	c #FAFAF9",
"G 	c #F7E2E9",
"H 	c #EBD4DB",
"I 	c #ECDCE0",
"J 	c #FAF4F3",
"K 	c #FDF7F7",
"L 	c #F1BED2",
"M 	c #B52350",
"N 	c #BB4367",
"O 	c #EFC6D5",
"P 	c #D64E79",
"Q 	c #9C284B",
"R 	c #FED2E3",
"S 	c #FEF8F9",
"T 	c #FAFCF9",
"U 	c #F1D3DD",
"V 	c #C1768B",
"W 	c #D294A7",
"X 	c #D9B0BF",
"Y 	c #DDBDC4",
"Z 	c #F7EFEE",
"` 	c #FEE6F0",
" .	c #C75C7E",
"..	c #A33253",
"+.	c #F3CDDA",
"@.	c #BD1B4D",
"#.	c #D47694",
"$.	c #FEF5FA",
"%.	c #FCFBF8",
"&.	c #F6E3E9",
"*.	c #B7818F",
"=.	c #F9D6E1",
"-.	c #FCF2F5",
";.	c #FDF8F8",
">.	c #F9F5F3",
",.	c #FBFEFA",
"'.	c #FDF1F5",
").	c #BA718C",
"!.	c #AB3E5E",
"~.	c #BA1E4E",
"{.	c #E4ACC2",
"].	c #FCFBF9",
"^.	c #F8FEF9",
"/.	c #FEF7FA",
"(.	c #E1C4D2",
"_.	c #C38B99",
":.	c #F6FBF6",
"<.	c #F9FBF7",
"[.	c #F8F6F3",
"}.	c #ECEAE6",
"|.	c #FDEFF5",
"1.	c #B96E8A",
"2.	c #AD4865",
"3.	c #AF1746",
"4.	c #E7B8CA",
"5.	c #FBFDFA",
"6.	c #FEF7F9",
"7.	c #DAB8C9",
"8.	c #B87C8B",
"9.	c #FDEEF2",
"0.	c #FBFCF9",
"a.	c #FCF8F8",
"b.	c #E3D3D6",
"c.	c #E3D5D6",
"d.	c #FDE2ED",
"e.	c #C25678",
"f.	c #C66481",
"g.	c #FBDFE6",
"h.	c #BF2151",
"i.	c #EAB4C7",
"j.	c #FDFDF9",
"k.	c #FEFBFA",
"l.	c #E7C1D2",
"m.	c #A14A63",
"n.	c #F8D0E0",
"o.	c #FDF5F9",
"p.	c #EBCED3",
"q.	c #FCE8F1",
"r.	c #FEE8F5",
"s.	c #D79AB1",
"t.	c #AA3E60",
"u.	c #EFB5C9",
"v.	c #FEF7FC",
"w.	c #C62D5C",
"x.	c #DA8EA4",
"y.	c #FEF9F9",
"z.	c #F9FEF9",
"A.	c #F9FBF6",
"B.	c #EDC6D3",
"C.	c #A74863",
"D.	c #B05570",
"E.	c #E0B5C5",
"F.	c #EECFDB",
"G.	c #E5C3D4",
"H.	c #B5768E",
"I.	c #A95D78",
"J.	c #E7B8CD",
"K.	c #FDF1F8",
"L.	c #FEFDFE",
"M.	c #D26086",
"N.	c #B75572",
"O.	c #F9D8E3",
"P.	c #F8FEF8",
"Q.	c #FEF6F7",
"R.	c #F9D7E4",
"S.	c #C26C85",
"T.	c #A5405E",
"U.	c #AC556E",
"V.	c #BD6B86",
"W.	c #D299AF",
"X.	c #F4DBE7",
"Y.	c #FAF7FA",
"Z.	c #FAFDFD",
"`.	c #F9FFFF",
" +	c #E1ABC2",
".+	c #9E2449",
"++	c #CC6E8E",
"@+	c #FEEDF5",
"#+	c #F8FDF8",
"$+	c #FDF6F5",
"%+	c #FFF3F9",
"&+	c #FFE7F3",
"*+	c #FBD7E1",
"=+	c #FCECF3",
"-+	c #FDF9FD",
";+	c #FDF8FA",
">+	c #FDFBFC",
",+	c #FDFCFC",
"'+	c #FCFDFD",
")+	c #F9E5EB",
"!+	c #C46782",
"~+	c #AC3A5C",
"{+	c #F6CFE1",
"]+	c #FCFAF9",
"^+	c #FEFCF8",
"/+	c #FEFCF9",
"(+	c #FBF8F5",
"_+	c #FDFBF9",
":+	c #FBFDFC",
"<+	c #F9FEFD",
"[+	c #FDFDFE",
"}+	c #FEFCFE",
"|+	c #FFF8FC",
"1+	c #FFFBFE",
"2+	c #E9BDCC",
"3+	c #963451",
"4+	c #D58CA5",
"5+	c #FFEFF9",
"6+	c #FBFBF7",
"7+	c #FDF9F7",
"8+	c #FEFBF9",
"9+	c #FBFCF7",
"0+	c #FBFDFB",
"a+	c #FDFDFF",
"b+	c #FFFCFE",
"c+	c #FBFBF8",
"d+	c #E8B4C6",
"e+	c #9B455E",
"f+	c #CA879E",
"g+	c #FBE8F0",
"h+	c #FBF8F6",
"i+	c #FEF8FA",
"j+	c #F5FCF7",
"k+	c #FEFCFF",
"l+	c #FFFCFF",
"m+	c #FFFDFF",
"n+	c #FEFEFF",
"o+	c #FDFFFF",
"p+	c #F3FDF6",
"q+	c #FEEEF5",
"r+	c #E1B3BF",
"s+	c #A6576D",
"t+	c #C37C91",
"u+	c #F1CED9",
"v+	c #FCF2F6",
"w+	c #F7FDF8",
"x+	c #F7FEFD",
"y+	c #FDFEFF",
"z+	c #FFFEFF",
"A+	c #F1FDF8",
"B+	c #FAFDF8",
"C+	c #F9F9F5",
"D+	c #F4F3F1",
"E+	c #F4D4E1",
"F+	c #D085A3",
"G+	c #C4617E",
"H+	c #D4A2B2",
"I+	c #EAD3D9",
"J+	c #FEF8F7",
"K+	c #FEFCFD",
"L+	c #FFFBFF",
". + @ # $ % & * = - ; > , ' ) ! ",
"~ { ] ^ / ( _ : < [ } | 1 2 ' 3 ",
"4 5 6 7 8 9 0 a b c d e f g h i ",
"j k l m n o p q r s t u v w x y ",
"z A B C D E F G H I J K L M N O ",
"P Q R S ! T U V W X Y Z `  ...+.",
"@.#.$.) %.&.*.=.-.;.>.,.'.).!.c ",
"~.{.].^./.(._.-.:.<.[.}.|.1.2.j ",
"3.4.5.! 6.7.8.9.0.a.b.c.d.e.f.g.",
"h.i.j.) k.l.m.n.o.p.q.r.s.t.u.v.",
"w.x.y.z.A.B.C.D.E.F.G.H.I.J.K.L.",
"M.N.O.0.P.Q.R.S.T.U.V.W.X.Y.Z.`.",
" +.+++@+#+%.$+%+&+*+=+-+;+>+,+'+",
")+!+~+{+]+^+/+(+_+k.:+<+[+}+|+1+",
"K 2+3+4+5+k.6+7+8+9+0+a+}+b+b+b+",
"c+|.d+e+f+g+@ h+i+j+<+k+l+m+n+o+",
"p+K q+r+s+t+u+v+D w+x+y+n+z+n+n+",
"A+B+C+D+E+F+G+H+I+J+K+m+m+m+l+L+"};
