/* XPM */
static char * diff_xpm[] = {
"20 18 55 1",
" 	c None",
".	c #A09F9C",
"+	c #000000",
"@	c #D1D1BC",
"#	c #919182",
"$	c #272727",
"%	c #AEAEA8",
"&	c #B7B7A5",
"*	c #D4D4BE",
"=	c #D8D8C2",
"-	c #EAEAE2",
";	c #707070",
">	c #B3B3AC",
",	c #D7D7C1",
"'	c #DBDBC4",
")	c #DDDDD9",
"!	c #42423A",
"~	c #A5A595",
"{	c #616156",
"]	c #A5A594",
"^	c #D9D9C3",
"/	c #ACAC9B",
"(	c #BBBBA7",
"_	c #DCDCC5",
":	c #DADAC3",
"<	c #DEDEC7",
"[	c #E2E2CA",
"}	c #929284",
"|	c #DFDFC8",
"1	c #DDDDC6",
"2	c #E1E1C9",
"3	c #E4E4CD",
"4	c #B4B4A1",
"5	c #E0E0C9",
"6	c #E3E3CC",
"7	c #E7E7CF",
"8	c #EBEBD3",
"9	c #A3A391",
"0	c #AEAE9C",
"a	c #E2E2CB",
"b	c #E6E6CF",
"c	c #EAEAD2",
"d	c #EEEED5",
"e	c #F2F2D9",
"f	c #E5E5CE",
"g	c #E9E9D1",
"h	c #EDEDD5",
"i	c #F1F1D8",
"j	c #F5F5DC",
"k	c #A7A796",
"l	c #9F9F8F",
"m	c #E8E8D0",
"n	c #ECECD4",
"o	c #F0F0D7",
"p	c #A6A696",
"   .                ",
"                    ",
"       .            ",
"         ++         ",
"       ++@#+        ",
"     +$%&*=+ ++     ",
"     +-;>,'++@#+    ",
"     +)!~+$%&*=+    ",
"     +{]^+-;>,'/+   ",
"     +(=_+)!~:<[+   ",
"     +}'|+{]^1234+  ",
"     ++<[+(=_56789+ ",
"      +03+}'|abcde+ ",
"       +7++<[fghijk+",
"       +l++03mnop++ ",
"        +  +789++   ",
"           +l++     ",
"            +       "};
