/* XPM */
static char * diff_xpm[] = {
"16 14 56 1",
" 	c None",
".	c #999999",
"+	c #818181",
"@	c #FFFFFF",
"#	c #ECECEC",
"$	c #EDEDED",
"%	c #EDEEED",
"&	c #EEEEEE",
"*	c #EDEDEE",
"=	c #EEEEED",
"-	c #ECEDEC",
";	c #EDEEEE",
">	c #EEEDEE",
",	c #EEEFEE",
"'	c #EDEDEC",
")	c #EFEEEE",
"!	c #EFEFEF",
"~	c #EFEFEE",
"{	c #EEEEEF",
"]	c #EFEFF0",
"^	c #EFF0F0",
"/	c #D9D9D9",
"(	c #575757",
"_	c #E5E5E5",
":	c #F0EFF0",
"<	c #F0F0F0",
"[	c #DADAD9",
"}	c #CECECE",
"|	c #7F7F7F",
"1	c #EFF0EF",
"2	c #D9DAD9",
"3	c #AFAFAF",
"4	c #EEEFEF",
"5	c #B2B2B2",
"6	c #B3B3B3",
"7	c #A3A3A3",
"8	c #6C6C6C",
"9	c #EFEEEF",
"0	c #B5B5B5",
"a	c #B6B6B6",
"b	c #B7B7B7",
"c	c #737373",
"d	c #777777",
"e	c #E1E1E1",
"f	c #B9B9B9",
"g	c #BABABA",
"h	c #BBBBBB",
"i	c #969696",
"j	c #9B9B9B",
"k	c #DFDFDF",
"l	c #BEBEBE",
"m	c #B4B4B4",
"n	c #959595",
"o	c #797979",
"p	c #A4A4A4",
"q	c #848484",
".+++++++++++++  ",
"+@@@@@@@@@@@@+  ",
"+@##$$%&&*&=@+  ",
"+@-$$;>>&&,&@+  ",
"+@'$&>&,)!!~@+  ",
"+@%%&{!]^^/(_+  ",
"+@$&)!!:<[(}(|  ",
"+@>&)1:<2(}3|(  ",
"+@;{4<!/(}5678( ",
"+@;&9^<(}0ab7cd(",
"+@&&!!1e(fghij( ",
"+@@@@@@@k(lmi(  ",
"n++++++++o(p(q  ",
"           (    "};
