/* XPM */
static char * dir_xpm[] = {
"16 14 59 1",
" 	c None",
".	c #555753",
"+	c #6D6F6B",
"@	c #676965",
"#	c #636561",
"$	c #C0C0BF",
"%	c #969795",
"&	c #C9C9C9",
"*	c #A6A6A6",
"=	c #A7A7A7",
"-	c #A8A8A8",
";	c #617A9A",
">	c #3465A4",
",	c #466D9C",
"'	c #C6D8EB",
")	c #BED2E8",
"!	c #AEC7E3",
"~	c #8CB1D8",
"{	c #5F615D",
"]	c #89AED6",
"^	c #A6C2E0",
"/	c #3967A2",
"(	c #ADC7E3",
"_	c #8BB0D7",
":	c #8AAFD7",
"<	c #88AED6",
"[	c #85ABD5",
"}	c #80A8D3",
"|	c #7AA4D2",
"1	c #73A0CF",
"2	c #6E9DCE",
"3	c #98B9DC",
"4	c #58769B",
"5	c #9BBBDD",
"6	c #709ECE",
"7	c #709DCF",
"8	c #6E9CCE",
"9	c #6D9CCE",
"0	c #6C9BCE",
"a	c #6B9BCD",
"b	c #6A9ACE",
"c	c #6999CD",
"d	c #6899CD",
"e	c #94B6DB",
"f	c #A9ABA9",
"g	c #89AFD7",
"h	c #6B9ACD",
"i	c #6A9ACD",
"j	c #6898CD",
"k	c #6698CC",
"l	c #6598CD",
"m	c #6597CC",
"n	c #6496CC",
"o	c #6395CC",
"p	c #9ABADE",
"q	c #537196",
"r	c #455D79",
"s	c #3E6089",
"t	c #3F6086",
".+++++@@#       ",
"+$%%%%%%%.....  ",
"+&*********=-.  ",
"@$;>>>>>>>>>>>>,",
"@&>'))))))))))'>",
"@$>!~~~~~~~~~~!>",
"{&>!~~~~~~~~~~!>",
".$>!~~~~~~~~~~!>",
".&>!~~~~~~~~~~!>",
".$>!~~~~~~~~~]^>",
".&/(_~_:<[}|123>",
".$45672890abcde>",
".fgahicjklmnopqr",
"s>>>>>>>>>>>>>t "};
