/* XPM */
static char * doc_xpm[] = {
"16 14 59 1",
" 	c None",
".	c #636363",
"+	c #B5B5B4",
"@	c #B1B1B1",
"#	c #ACACAB",
"$	c #000000",
"%	c #303030",
"&	c #AFAFAE",
"*	c #AFAFAF",
"=	c #AEAEAE",
"-	c #ADADAC",
";	c #A6A6A6",
">	c #AEAEAD",
",	c #ACACAC",
"'	c #A7A7A6",
")	c #B1B1B0",
"!	c #B6B6B6",
"~	c #B5B5B5",
"{	c #B3B3B3",
"]	c #BBBBBB",
"^	c #B7B7B7",
"/	c #B9B9B9",
"(	c #C2C2C2",
"_	c #C5C5C4",
":	c #C3C3C3",
"<	c #C1C1C0",
"[	c #BFBFBF",
"}	c #D2D2D2",
"|	c #D1D1D1",
"1	c #D4D4D3",
"2	c #D3D3D3",
"3	c #CDCDCD",
"4	c #C9C9C9",
"5	c #C6C6C5",
"6	c #EAEAEA",
"7	c #E4E4E4",
"8	c #E1E1E1",
"9	c #DFDFDF",
"0	c #DDDDDD",
"a	c #D8D8D8",
"b	c #CECECE",
"c	c #C9C9C8",
"d	c #F4F4F4",
"e	c #F0F0F0",
"f	c #ECECEC",
"g	c #E9E9E9",
"h	c #E5E5E5",
"i	c #E0E0DF",
"j	c #DADADA",
"k	c #EBEBEB",
"l	c #FAFAFA",
"m	c #F6F6F6",
"n	c #F1F1F1",
"o	c #E5E5E4",
"p	c #BEBEBD",
"q	c #FFFFFF",
"r	c #FDFDFD",
"s	c #EEEEEE",
"t	c #A7A7A7",
"         .      ",
"      ....      ",
"    ..++@#$     ",
"   ..%&*=-.     ",
"  ...%;>>,'.    ",
"  .$%%)!~{~.    ",
"  .]^/(_:<[!$   ",
"   .}|12|345.   ",
"   .67890a2bc.  ",
"   .defghij1=.  ",
"   .klmnkop..%  ",
"    .qrst..%%%  ",
"    ......%%%   ",
"     .%%%%%%    "};
