/* XPM */
static char * dotdot_xpm[] = {
"16 16 8 1",
" 	c None",
".	c #000000",
"+	c #526741",
"@	c #566B43",
"#	c #5A7046",
"$	c #4C603C",
"%	c #445636",
"&	c #37452B",
"                ",
"                ",
"                ",
"      .         ",
"     .+.        ",
"    .@#@.       ",
"   ..$++..      ",
"     .+.        ",
"     .$.        ",
"     .%.        ",
"      .%.       ",
"      .%&.   .  ",
"       ..&...   ",
"         ...    ",
"                ",
"                "};
