/* XPM */
static char * down_xpm[] = {
"16 16 93 2",
"  	c None",
". 	c #3A7404",
"+ 	c #3A7304",
"@ 	c #C7DEB0",
"# 	c #C3DCAB",
"$ 	c #BFDAA6",
"% 	c #B1D291",
"& 	c #A3CA7E",
"* 	c #C8DFB1",
"= 	c #8DBE5F",
"- 	c #86BA55",
"; 	c #71AE37",
"> 	c #4E9A06",
", 	c #C7DFB1",
"' 	c #78B241",
") 	c #8CBD5D",
"! 	c #85B954",
"~ 	c #7CB447",
"{ 	c #3B7504",
"] 	c #3B7604",
"^ 	c #C5DDAD",
"/ 	c #89BC59",
"( 	c #82B850",
"_ 	c #6FAD34",
": 	c #568927",
"< 	c #C2DBAA",
"[ 	c #C6DEAF",
"} 	c #C2DCAA",
"| 	c #88BD56",
"1 	c #82BA4D",
"2 	c #63AA1F",
"3 	c #53A208",
"4 	c #A5CE7F",
"5 	c #A4CD7E",
"6 	c #A4CC7E",
"7 	c #9FC778",
"8 	c #4B8218",
"9 	c #3B7404",
"0 	c #7AA54F",
"a 	c #B8D69B",
"b 	c #8DBE5D",
"c 	c #8AC058",
"d 	c #87C051",
"e 	c #7EBC42",
"f 	c #5AAB0C",
"g 	c #59AB0B",
"h 	c #59AA0A",
"i 	c #58A90C",
"j 	c #97C768",
"k 	c #659A34",
"l 	c #99BF75",
"m 	c #A9D183",
"n 	c #89C252",
"o 	c #87C34D",
"p 	c #69B61E",
"q 	c #5FB40D",
"r 	c #5EB30D",
"s 	c #89C54E",
"t 	c #84B755",
"u 	c #40780D",
"v 	c #B1D390",
"w 	c #98CC65",
"x 	c #7DC23B",
"y 	c #62B90F",
"z 	c #65BC0F",
"A 	c #65BD10",
"B 	c #7BC532",
"C 	c #9FCE71",
"D 	c #3F780A",
"E 	c #578C26",
"F 	c #B7DB94",
"G 	c #79C331",
"H 	c #67C011",
"I 	c #6AC512",
"J 	c #73C91F",
"K 	c #A8DB78",
"L 	c #52891E",
"M 	c #7AAA4C",
"N 	c #A0D66D",
"O 	c #69C412",
"P 	c #6ECB14",
"Q 	c #A5E06C",
"R 	c #72A83F",
"S 	c #3C7604",
"T 	c #8DBF5D",
"U 	c #8DD14C",
"V 	c #90D54E",
"W 	c #92C55F",
"X 	c #427A0E",
"Y 	c #A2D174",
"Z 	c #A3D375",
"` 	c #427B0E",
" .	c #568B24",
"        . + + + + + + .         ",
"        + @ # $ % & & +         ",
"        + * = - ; > & +         ",
"        + , = - ' > & +         ",
"        + @ ) ! ~ > & +         ",
"{ + + + ] ^ / ( _ > & ] + + + { ",
"  : < [ ^ } | 1 2 3 4 5 6 7 8   ",
"  9 0 a b c d e f g h i j k 9   ",
"    . l m n o p q q r s t {     ",
"      u v w x y z A B C D       ",
"        E F G H I J K L         ",
"        { M N O P Q R S         ",
"          ] T U V W S           ",
"            X Y Z `             ",
"               . .              ",
"              S S               "};
