/* XPM */
static char * exe_xpm[] = {
"15 13 38 1",
" 	c None",
".	c #626262",
"+	c #3C3C3C",
"@	c #969696",
"#	c #D2D2D2",
"$	c #C5C5C5",
"%	c #9D9D9D",
"&	c #4E4E4E",
"*	c #6A6A6A",
"=	c #C6C6C6",
"-	c #BEBEBE",
";	c #A3A3A3",
">	c #999999",
",	c #6F6F6F",
"'	c #B0B0B0",
")	c #ADADAD",
"!	c #474747",
"~	c #B6B6B6",
"{	c #CDCDCD",
"]	c #424242",
"^	c #444444",
"/	c #373737",
"(	c #D0D0D0",
"_	c #BBBBBB",
":	c #8E8E8E",
"<	c #454545",
"[	c #171717",
"}	c #C3C3C3",
"|	c #A2A2A2",
"1	c #565656",
"2	c #4B4B4B",
"3	c #B2B2B2",
"4	c #8C8C8C",
"5	c #434343",
"6	c #1E1E1E",
"7	c #232323",
"8	c #484848",
"9	c #727272",
"        .      ",
"      +@#$%&   ",
"      +*==-;   ",
"      >+,>')!  ",
"     +~{+]^/   ",
"     +-(_:<[   ",
"     +}}|12    ",
"      %3456    ",
"      7+++     ",
"      ++       ",
"     *8+       ",
"     +9+       ",
"      +        "};
