/* XPM */
static char * gftp_xpm[] = {
"52 48 497 2",
"  	c None",
". 	c #2B2B2B",
"+ 	c #121C3E",
"@ 	c #8A8B8D",
"# 	c #FDFDFD",
"$ 	c #858585",
"% 	c #1E1E1E",
"& 	c #7089E3",
"* 	c #6D87E2",
"= 	c #6B85E2",
"- 	c #6883E1",
"; 	c #6581E1",
"> 	c #637FE1",
", 	c #607DE0",
"' 	c #5E7AE0",
") 	c #5B78DF",
"! 	c #5976DF",
"~ 	c #5674DE",
"{ 	c #5372DE",
"] 	c #5170DD",
"^ 	c #4E6EDD",
"/ 	c #4C6CDC",
"( 	c #4869DA",
"_ 	c #405DC7",
": 	c #2F4698",
"< 	c #1D2C62",
"[ 	c #BEBEBF",
"} 	c #FFFFFF",
"| 	c #FEFEFE",
"1 	c #F5F5F5",
"2 	c #A8A8A8",
"3 	c #BEBEBE",
"4 	c #708AE3",
"5 	c #8399E7",
"6 	c #C0CCF3",
"7 	c #7890E4",
"8 	c #6681E1",
"9 	c #6782E2",
"0 	c #B0BEEF",
"a 	c #BECAF2",
"b 	c #748CE4",
"c 	c #5675DE",
"d 	c #5472DE",
"e 	c #627EE1",
"f 	c #ADBCEF",
"g 	c #6F89E3",
"h 	c #4867D7",
"i 	c #3A56B6",
"j 	c #243674",
"k 	c #242A3C",
"l 	c #E8E8E8",
"m 	c #D7D7D7",
"n 	c #C7C7C7",
"o 	c #8F8F8F",
"p 	c #718AE3",
"q 	c #BDC9F2",
"r 	c #D2DAF6",
"s 	c #8097E6",
"t 	c #6682E2",
"u 	c #6480E1",
"v 	c #B2BFF0",
"w 	c #9BACEB",
"x 	c #728BE4",
"y 	c #D4DBF6",
"z 	c #5977DF",
"A 	c #5473DE",
"B 	c #A5B5ED",
"C 	c #BCC8F2",
"D 	c #8298E7",
"E 	c #4766D3",
"F 	c #364FA7",
"G 	c #364166",
"H 	c #464749",
"I 	c #FCFCFC",
"J 	c #B1B1B1",
"K 	c #EDEDED",
"L 	c #FAFAFA",
"M 	c #5E5E5E",
"N 	c #718BE3",
"O 	c #6F88E3",
"P 	c #C2CDF3",
"Q 	c #8197E6",
"R 	c #6580E1",
"S 	c #D9E0F7",
"T 	c #647FE1",
"U 	c #5D7AE0",
"V 	c #C0CBF3",
"W 	c #748DE4",
"X 	c #5573DE",
"Y 	c #5271DD",
"Z 	c #9DAFEC",
"` 	c #8298E6",
" .	c #4664CE",
"..	c #324999",
"+.	c #464B5D",
"@.	c #64656A",
"#.	c #A1A1A1",
"$.	c #F0F0F0",
"%.	c #323232",
"&.	c #728BE3",
"*.	c #8198E6",
"=.	c #6883E2",
"-.	c #DDE3F8",
";.	c #607CE0",
">.	c #859BE7",
",.	c #5574DE",
"'.	c #5372DD",
").	c #9EAFEC",
"!.	c #8298E5",
"~.	c #4461C7",
"{.	c #2D428B",
"].	c #444751",
"^.	c #8F9092",
"/.	c #9F9F9F",
"(.	c #D5D5D5",
"_.	c #C3CDF3",
":.	c #6782E1",
"<.	c #DCE2F8",
"[.	c #B7C4F1",
"}.	c #7F96E6",
"|.	c #8197E4",
"1.	c #415DBF",
"2.	c #293B7B",
"3.	c #333641",
"4.	c #C1C1C1",
"5.	c #F7F7F7",
"6.	c #868686",
"7.	c #CCCCCC",
"8.	c #7C7C7C",
"9.	c #738CE3",
"0.	c #CCD5F5",
"a.	c #768FE5",
"b.	c #5F7CE0",
"c.	c #D4DCF6",
"d.	c #637FE0",
"e.	c #5675DF",
"f.	c #9EB0EC",
"g.	c #8196E1",
"h.	c #3E58B4",
"i.	c #24346D",
"j.	c #212535",
"k.	c #ECECEC",
"l.	c #D1D1D1",
"m.	c #CACACA",
"n.	c #758EE4",
"o.	c #C8D2F4",
"p.	c #E4E8F9",
"q.	c #90A4E9",
"r.	c #6682E1",
"s.	c #D5DCF6",
"t.	c #CED6F5",
"u.	c #A4B4ED",
"v.	c #5775DF",
"w.	c #D8DFF7",
"x.	c #C9D1EC",
"y.	c #6F7DB1",
"z.	c #202E5F",
"A.	c #333846",
"B.	c #DBDBDB",
"C.	c #5A77DF",
"D.	c #5875DE",
"E.	c #4D6ACF",
"F.	c #374D9A",
"G.	c #1C2853",
"H.	c #62646C",
"I.	c #FBFBFB",
"J.	c #ACACAC",
"K.	c #98ABEB",
"L.	c #6A85E2",
"M.	c #8A9FE8",
"N.	c #A0B1EC",
"O.	c #5A78DF",
"P.	c #5876DF",
"Q.	c #ACBBED",
"R.	c #8495D3",
"S.	c #31458B",
"T.	c #182247",
"U.	c #929396",
"V.	c #A4A29C",
"W.	c #C7C4B8",
"X.	c #F8F8F7",
"Y.	c #F4F4F4",
"Z.	c #787878",
"`.	c #DAE0F7",
" +	c #899EE8",
".+	c #C9D2F4",
"++	c #8EA2E9",
"@+	c #B5C2F0",
"#+	c #D3DBF6",
"$+	c #5D7ADF",
"%+	c #748CE1",
"&+	c #919FCD",
"*+	c #566084",
"=+	c #141C39",
"-+	c #C4C4C4",
";+	c #D5D5D3",
">+	c #BEB89F",
",+	c #E7E0C0",
"'+	c #F0EFE8",
")+	c #9F9C94",
"!+	c #D8D4C4",
"~+	c #FCFCFB",
"{+	c #444444",
"]+	c #AAB9EE",
"^+	c #ACBBEF",
"/+	c #8CA0E8",
"(+	c #C1CCF3",
"_+	c #5E7BE0",
":+	c #5C79DF",
"<+	c #B3C1F0",
"[+	c #516FD8",
"}+	c #4C63B6",
"|+	c #696D7A",
"1+	c #1A2035",
"2+	c #EFEFED",
"3+	c #DDD8C3",
"4+	c #ECE6D2",
"5+	c #EBEAE7",
"6+	c #B7B29F",
"7+	c #EEEADC",
"8+	c #BAC7F1",
"9+	c #9DAEEC",
"0+	c #7D94E5",
"a+	c #6984E2",
"b+	c #5F7BE0",
"c+	c #5C79E0",
"d+	c #95A8EA",
"e+	c #A1B2ED",
"f+	c #506ED4",
"g+	c #3D55A7",
"h+	c #60636B",
"i+	c #383C4A",
"j+	c #E7E6E4",
"k+	c #ECECEA",
"l+	c #F9F9F8",
"m+	c #F2F1EB",
"n+	c #E2E1DF",
"o+	c #DEDDD9",
"p+	c #D9D9D9",
"q+	c #A1B1EC",
"r+	c #718AE4",
"s+	c #CED7F5",
"t+	c #4F6BCF",
"u+	c #3A4F99",
"v+	c #53565E",
"w+	c #65676F",
"x+	c #B3B1AE",
"y+	c #A0978A",
"z+	c #BAAF9F",
"A+	c #D5D0C7",
"B+	c #F8F7F7",
"C+	c #B2AEA6",
"D+	c #D5CDBD",
"E+	c #FBFBFA",
"F+	c #BBC7F1",
"G+	c #B2C0F0",
"H+	c #738CE4",
"I+	c #C3CDF2",
"J+	c #4C68C8",
"K+	c #42538D",
"L+	c #41444F",
"M+	c #959698",
"N+	c #EDEDEC",
"O+	c #A0958A",
"P+	c #D0BCA6",
"Q+	c #D3C0A9",
"R+	c #D2BFA9",
"S+	c #DFD5C9",
"T+	c #F0EEEB",
"U+	c #F2F1EF",
"V+	c #757575",
"W+	c #7A92E5",
"X+	c #C3CEF3",
"Y+	c #7A91E5",
"Z+	c #8CA1E8",
"`+	c #ECF0FB",
" @	c #C0CBF2",
".@	c #B8C4EE",
"+@	c #A0ABCF",
"@@	c #737889",
"#@	c #20263B",
"$@	c #F5F5F4",
"%@	c #C1B4AA",
"&@	c #CCB5A2",
"*@	c #CEB7A3",
"=@	c #CFB9A4",
"-@	c #D2BDA9",
";@	c #F3F1EE",
">@	c #AFABA7",
",@	c #E3DFDC",
"'@	c #414141",
")@	c #778FE4",
"!@	c #869CE7",
"~@	c #758DE4",
"{@	c #6E87E3",
"]@	c #6B86E2",
"^@	c #5B79DF",
"/@	c #5673D9",
"(@	c #576CB7",
"_@	c #2E3C6D",
":@	c #1B2034",
"<@	c #EFEFEF",
"[@	c #F1EFED",
"}@	c #D2C2B8",
"|@	c #C6AB9B",
"1@	c #C9B09E",
"2@	c #CCB3A1",
"3@	c #EDE8E4",
"4@	c #DDD6D1",
"5@	c #F3EFED",
"6@	c #C4CEF3",
"7@	c #6E88E3",
"8@	c #B4C2F0",
"9@	c #647ED8",
"0@	c #828DB3",
"a@	c #353F62",
"b@	c #3A3E4B",
"c@	c #D3D0CE",
"d@	c #B09589",
"e@	c #C4A697",
"f@	c #C6AA9A",
"g@	c #EBE3DF",
"h@	c #7991E5",
"i@	c #879CE8",
"j@	c #6C86E3",
"k@	c #B6C3F0",
"l@	c #D6DDF7",
"m@	c #617DE0",
"n@	c #9EACDE",
"o@	c #7F88A5",
"p@	c #373E57",
"q@	c #696A71",
"r@	c #B7B3B2",
"s@	c #A98B81",
"t@	c #BE9D91",
"u@	c #C1A196",
"v@	c #ECE6E4",
"w@	c #A5A5A5",
"x@	c #C5D0F4",
"y@	c #889DE8",
"z@	c #6D87E3",
"A@	c #DBE1F8",
"B@	c #6C86E2",
"C@	c #7B92E5",
"D@	c #5C79DE",
"E@	c #516BC8",
"F@	c #5D6891",
"G@	c #2F364B",
"H@	c #999A9C",
"I@	c #B5B1B0",
"J@	c #907D7B",
"K@	c #998582",
"L@	c #917672",
"M@	c #B48E86",
"N@	c #B9938A",
"O@	c #BE9F98",
"P@	c #F2F0EF",
"Q@	c #717171",
"R@	c #778FE5",
"S@	c #C6D0F4",
"T@	c #DEE4F8",
"U@	c #8BA0E8",
"V@	c #5C78DC",
"W@	c #4E67BF",
"X@	c #525C81",
"Y@	c #272C3B",
"Z@	c #CBCBCB",
"`@	c #EEEDED",
" #	c #8A7472",
".#	c #AC807D",
"+#	c #AF837F",
"@#	c #B18581",
"##	c #B38883",
"$#	c #B48B86",
"%#	c #CFBFBC",
"&#	c #3E3E3E",
"*#	c #7890E5",
"=#	c #889EE8",
"-#	c #6A84E2",
";#	c #5B77D9",
">#	c #4961B4",
",#	c #485171",
"'#	c #2D3039",
")#	c #F4F3F3",
"!#	c #A08686",
"~#	c #A97A7A",
"{#	c #AB7C7B",
"]#	c #AC7D7C",
"^#	c #B08482",
"/#	c #CBB8B6",
"(#	c #F6F4F4",
"_#	c #5A75D5",
":#	c #445AA7",
"<#	c #3F4763",
"[#	c #4D4E51",
"}#	c #E1D8D8",
"|#	c #B69090",
"1#	c #AA7E7E",
"2#	c #AF8A8A",
"3#	c #DACBCB",
"4#	c #F9F8F8",
"5#	c #D2D2D2",
"6#	c #7D95E6",
"7#	c #CBD5F4",
"8#	c #E5EAF9",
"9#	c #96A9EB",
"0#	c #D7DEF7",
"a#	c #D0D8F6",
"b#	c #A9B8EE",
"c#	c #5872D0",
"d#	c #7882A4",
"e#	c #4F525B",
"f#	c #757576",
"g#	c #F4F1F1",
"h#	c #E7DFDF",
"i#	c #ECE9E9",
"j#	c #7C93E6",
"k#	c #7C93E5",
"l#	c #6C87E3",
"m#	c #617DDF",
"n#	c #556FC8",
"o#	c #3A4C8A",
"p#	c #1D2646",
"q#	c #9C9D9E",
"r#	c #6E6E6E",
"s#	c #7D94E6",
"t#	c #C4CFF3",
"u#	c #617CDD",
"v#	c #516ABF",
"w#	c #535D80",
"x#	c #36383E",
"y#	c #CDCDCD",
"z#	c #3B3B3B",
"A#	c #CAD3F4",
"B#	c #ABBAEE",
"C#	c #849AE7",
"D#	c #869BE7",
"E#	c #D5DDF7",
"F#	c #607BDA",
"G#	c #576CB6",
"H#	c #686B77",
"I#	c #202637",
"J#	c #F1F1F1",
"K#	c #A8B8EE",
"L#	c #CDD6F5",
"M#	c #5F79D6",
"N#	c #6675AC",
"O#	c #4E5466",
"P#	c #414450",
"Q#	c #BFCAF2",
"R#	c #A2B3ED",
"S#	c #5C76D0",
"T#	c #62709E",
"U#	c #424758",
"V#	c #6F7176",
"W#	c #9E9E9E",
"X#	c #C9D3F4",
"Y#	c #718BE4",
"Z#	c #6681E0",
"`#	c #5972C9",
" $	c #515E8D",
".$	c #3C3F4C",
"+$	c #9FA0A1",
"@$	c #6A6A6A",
"#$	c #94A7EA",
"$$	c #7B93E5",
"%$	c #BAC6F1",
"&$	c #A3B4ED",
"*$	c #6D86DF",
"=$	c #566DBF",
"-$	c #39487A",
";$	c #36383C",
">$	c #373737",
",$	c #AEBCEF",
"'$	c #728CE4",
")$	c #92A6EA",
"!$	c #CAD4F4",
"~$	c #BDC8EC",
"{$	c #5268B4",
"]$	c #2F3C6B",
"^$	c #242837",
"/$	c #F6F6F6",
"($	c #F2F2F2",
"_$	c #768EE4",
":$	c #637DD6",
"<$	c #4B5FA6",
"[$	c #29345D",
"}$	c #454852",
"|$	c #2E3963",
"1$	c #212A49",
"2$	c #111627",
"3$	c #717175",
"4$	c #9B9B9B",
"5$	c #000000",
"6$	c #7B7B7B",
"7$	c #C8C8C8",
"8$	c #555555",
"                                                                                                        ",
"                                                                                                        ",
"                                                                                                        ",
"                                                                                                        ",
"                                                                                                        ",
"                                        . . . . . . . . . . . . . . . . . . . .                         ",
"                                    + @ # # # # # # # # # # # # # # # # # # # # $ %                     ",
"& * = - ; > , ' ) ! ~ { ] ^ / ( _ : < [ } } } } | } } } } } } } } } } } } } } 1 2 3                     ",
"4 5 6 7 8 > 9 0 a b c d e f g h i j k l } } } } | } } } } } } } } } } } } } } m n | o                   ",
"p q r s t u v w x y z A B C D E F G H I } } } } | } } } } } } } } } } } } } } J K } L M                 ",
"N O P Q 9 R S T U V W X Y Z `  ...+.@.} } } } } | } } } } } } } } } } } } } } #.# } } $.%.              ",
"&.g P *.9 =.-.;.U v >.,.'.).!.~.{.].^.} } } } } | } } } } } } } } } } } } } } /.} } } } (.              ",
"&.& _.D =.:.<.e ' [.}.~ { ).|.1.2.3.4.} } } } } | } } } } } } } } } } } } } 5.6.7.7.7.7.7.8.            ",
"9.4 _.D =.8 0.a.b.c.d.e.d f.g.h.i.j.k.} } } } } | } } } } } } } } } } } } } L l.l.l.l.l.l.m.            ",
"n.o.p.y q.r.s s.t.u.z v.0 w.x.y.z.A.# } } } } } | } } } } } } } } } } } } } } } } } } } } B.            ",
"W W N g = 9 u ; r.U C.v.D.,.E.F.G.H.| } } } } } | } } | I.I.| } } } } } } } } } } } } } } J.            ",
"W q.q K.L.9 8 M.N.U O.P.O Q.R.S.T.U.} } } } } } | | } $.V.W.X.Y.5.| } } } } } } } } } } } Z.            ",
"D `. +.+++=.M.@+#+' ) $+s.%+&+*+=+-+} } } } } } | } } ;+>+,+'+)+!+~+} } } } } } } } } } | {+            ",
"]+^+4 /+(+=.8 8 #+_+:+s <+[+}+|+1+k.} } } } } } | } } 2+3+4+5+6+7+I } } } } } } } } } } 5.              ",
"8+9+p 0+r a+t 8 y b+c+d+e+f+g+h+i+I } } } } } } | } | L j+k+l+m+n+o+# } } } } } } } } } p+              ",
"[.q+r+Q s+a+9 :.y b.U q.B t+u+v+w+} } } } } } } | } L x+y+z+A+B+C+D+E+} } } } } } } } } 2               ",
").F+x 9+G+L.9 :.y ;.U H+I+J+K+L+M+} } } } } } } | } N+O+P+Q+R+S+T+U+I } } } } } } } } } V+              ",
"W+r X+S Y+L.Z+o.`+ @b.) .@+@@@#@n } } } } } } } | | $@%@&@*@=@-@;@>@,@} } } } } } } } } '@              ",
"7 )@!@~@{@= ]@{@= =._+^@/@(@_@:@<@} } } } } } } | } | [@}@|@1@2@3@4@5@} } } } } } } } 5.                ",
"7 M.6@}.7@]@7@8@(+W+b+:+9@0@a@b@| } } } } } } } | } } | c@d@e@f@g@| | } } } } } } } } m                 ",
"h@(+s.i@O j@k@N.h@l@m@:+n@o@p@q@} } } } } } } } | I Y.1 r@s@t@u@v@} } } } } } } } } } w@                ",
"h@)@x@y@g z@A@B@R X+C@D@E@F@G@H@} } } } } } } } I.I@J@K@L@M@N@O@P@} } } } } } } } } } Q@                ",
"W+R@S@y@& & T@=.; @+U@V@W@X@Y@Z@} } } } } } } } `@ #.#+#@###$#%#L } } } } } } } } } | &#                ",
"W+*#S@=#4 O T@-#8 F+>.;#>#,#'#$.} } } } } } } } )#!#~#{#]#^#/#(#| } } } } } } } } } Y.                  ",
"C@*#S@ +p 7@s+0+9 l@L._#:#<#[## } } } } } } } } | }#|#1#2#3#4#| } } } } } } } } } } 5#                  ",
"6#7#8#l@9#7@i@0#a#b#m@c#d#e#f#} } } } } } } } } | | g#h#i#I | } } } } } } } } } } } #.                  ",
"j#k#h@)@H+g l#z@7@R m#n#o#p#q#} } } } } } } } } | } } } } } } } } } } } } } } } } } r#                  ",
"s# @w.0.)@g C@t#s+; u#v#w#x#y#} } } } } } } } } | | } } } } } } } } } } } } } } } | z#                  ",
"K.A#*#^+B#& C#D#E#8 F#G#H#I#J#} } } } } } } } } | } } } } } } } } } } } } } } } } Y.                    ",
"[.K#7 M.L#4 7@z@l@8 M#N#O#P#| } } } } } } } } } | } } } } } } } } } } } } } } } } l.                    ",
"Q#R#h@C#E#p 7@7@l@8 S#T#U#V#} } } } } } } } } } | } } } } } } } } } } } } } } } } W#                    ",
"@+^+h@++X#Y#g 7@l@Z#`# $.$+$} } } } } } } } } } | } } } } } } } } } } } } } } } } @$                    ",
"#$#+$$%$&$x x )@w.*$=$-$;$5#} } } } } } } } } } | } } } } } } } } } } } } } } } | >$                    ",
"}.,$0#C )@'$)$A#!$~${$]$^$/$} } } } } } } } } } | | } } } } } } } } } } } } } } ($                      ",
"s s#C@7 _$H+4 7@= :$<$[$}$} } } } } } } } } } } | } } } } } } } } } } } } } } } y#                      ",
"                  |$1$2$3$} } } } } } } } } } } | } } } } } } } } } } } } } } } 4$                      ",
"                      5$6$7$7$7$7$7$7$7$7$7$7$7$7$7$7$7$7$7$7$7$7$7$7$7$7$7$7$7$8$                      ",
"                      5$5$5$5$5$5$5$5$5$5$5$5$5$5$5$5$5$5$5$5$5$5$5$5$5$5$5$5$                          ",
"                                                                                                        ",
"                                                                                                        ",
"                                                                                                        ",
"                                                                                                        ",
"                                                                                                        "};
