/* XPM */
static char * gftp_xpm[] = {
"48 48 243 2",
"  	c None",
". 	c #959595",
"+ 	c #999999",
"@ 	c #9A9A9A",
"# 	c #9C9C9C",
"$ 	c #9E9E9E",
"% 	c #929292",
"& 	c #909090",
"* 	c #8D8D8D",
"= 	c #8A8A8A",
"- 	c #868686",
"; 	c #858585",
"> 	c #818181",
", 	c #808080",
"' 	c #7C7C7C",
") 	c #797979",
"! 	c #757575",
"~ 	c #727272",
"{ 	c #707070",
"] 	c #6D6D6D",
"^ 	c #6A6A6A",
"/ 	c #666666",
"( 	c #656565",
"_ 	c #616161",
": 	c #5F5F5F",
"< 	c #979797",
"[ 	c #D8D8D8",
"} 	c #E4E4E4",
"| 	c #E6E6E6",
"1 	c #E7E7E7",
"2 	c #E5E5E5",
"3 	c #E3E3E3",
"4 	c #E2E2E2",
"5 	c #E1E1E1",
"6 	c #E0E0E0",
"7 	c #DFDFDF",
"8 	c #DEDEDE",
"9 	c #DCDCDC",
"0 	c #DBDBDB",
"a 	c #DADADA",
"b 	c #D9D9D9",
"c 	c #D7D7D7",
"d 	c #C4C4C4",
"e 	c #636363",
"f 	c #949494",
"g 	c #F9F9F9",
"h 	c #E8E8E8",
"i 	c #F4F4F4",
"j 	c #DDDDDD",
"k 	c #DBDCDC",
"l 	c #D9DBDC",
"m 	c #EEEEEE",
"n 	c #939393",
"o 	c #D9DADB",
"p 	c #AFB8C2",
"q 	c #7B8FA4",
"r 	c #687F99",
"s 	c #A3AFBC",
"t 	c #52667B",
"u 	c #4E6C8C",
"v 	c #1B416C",
"w 	c #133B67",
"x 	c #516D8B",
"y 	c #D9DBDE",
"z 	c #D4D4D4",
"A 	c #CACACA",
"B 	c #CBCBCB",
"C 	c #CCCCCC",
"D 	c #D1D1D1",
"E 	c #123B66",
"F 	c #123A67",
"G 	c #133A66",
"H 	c #123A66",
"I 	c #143C68",
"J 	c #768BA1",
"K 	c #E4E2E2",
"L 	c #E4DDDD",
"M 	c #EEE9E9",
"N 	c #5E5E5E",
"O 	c #133B66",
"P 	c #143C67",
"Q 	c #1A416B",
"R 	c #758AA0",
"S 	c #C5C5C5",
"T 	c #E6E0E0",
"U 	c #ECDCDC",
"V 	c #695959",
"W 	c #183E68",
"X 	c #5C7795",
"Y 	c #D5D5D5",
"Z 	c #D6D6D6",
"` 	c #EEE3E3",
" .	c #715555",
"..	c #26486D",
"+.	c #E2E5E9",
"@.	c #CECECE",
"#.	c #CFCFCF",
"$.	c #D0D0D0",
"%.	c #EFEFEF",
"&.	c #6C5555",
"*.	c #133A67",
"=.	c #5A697B",
"-.	c #F5F5F5",
";.	c #CDCDCD",
">.	c #D2D2D2",
",.	c #5C5B5B",
"'.	c #828384",
").	c #E9E9E9",
"!.	c #5B5B5B",
"~.	c #838383",
"{.	c #F3F3F3",
"].	c #D3D3D3",
"^.	c #C6C6C6",
"/.	c #C7C7C7",
"(.	c #C8C8C8",
"_.	c #EAEAEA",
":.	c #5A5A5A",
"<.	c #123B67",
"[.	c #828282",
"}.	c #EBEBEB",
"|.	c #585858",
"1.	c #7F7F7F",
"2.	c #ECECEC",
"3.	c #565656",
"4.	c #123966",
"5.	c #7D7D7D",
"6.	c #C9C9C9",
"7.	c #EDEDED",
"8.	c #555555",
"9.	c #133B65",
"0.	c #7A7A7A",
"a.	c #545454",
"b.	c #DE2929",
"c.	c #DF2A2A",
"d.	c #113B67",
"e.	c #787878",
"f.	c #F2F2F2",
"g.	c #535353",
"h.	c #DE2A2A",
"i.	c #DD2B2B",
"j.	c #F0F0F0",
"k.	c #515151",
"l.	c #113B66",
"m.	c #717171",
"n.	c #505050",
"o.	c #DE2B2B",
"p.	c #123A65",
"q.	c #F1F1F1",
"r.	c #4F4F4F",
"s.	c #DF2929",
"t.	c #4E4E4E",
"u.	c #6B6B6B",
"v.	c #A7A7A7",
"w.	c #DF2B2B",
"x.	c #686868",
"y.	c #636465",
"z.	c #545C63",
"A.	c #4B5561",
"B.	c #E6E8E9",
"C.	c #4B555F",
"D.	c #C5CCD5",
"E.	c #E2E3E4",
"F.	c #614949",
"G.	c #54585C",
"H.	c #C7CED6",
"I.	c #CBD0D6",
"J.	c #F7F7F7",
"K.	c #F8F8F8",
"L.	c #F6F6F6",
"M.	c #B43535",
"N.	c #E2E4E6",
"O.	c #CCD1D6",
"P.	c #D4D7DB",
"Q.	c #E3E3E4",
"R.	c #F3F0F0",
"S.	c #E57676",
"T.	c #CF2E2E",
"U.	c #E02A2A",
"V.	c #E12A2A",
"W.	c #E3E4E4",
"X.	c #DBDDE0",
"Y.	c #D9DBDD",
"Z.	c #EBEBEC",
"`.	c #F4ECEC",
" +	c #E03C3C",
".+	c #D52D2D",
"++	c #F1D5D5",
"@+	c #E35A5A",
"#+	c #E14343",
"$+	c #E46969",
"%+	c #933D3D",
"&+	c #F5F1F1",
"*+	c #EFC1C1",
"=+	c #EBA2A2",
"-+	c #EFCBCB",
";+	c #F2F0F0",
">+	c #606060",
",+	c #737373",
"'+	c #626262",
")+	c #525252",
"!+	c #282828",
"~+	c #333333",
"{+	c #3A3A3A",
"]+	c #3D3D3D",
"^+	c #404040",
"/+	c #454545",
"(+	c #383838",
"_+	c #242424",
":+	c #262626",
"<+	c #3E3E3E",
"[+	c #777777",
"}+	c #444444",
"|+	c #1C1C1C",
"1+	c #414141",
"2+	c #484848",
"3+	c #A2A2A2",
"4+	c #888888",
"5+	c #4D4D4D",
"6+	c #3F3F3F",
"7+	c #373737",
"8+	c #232323",
"9+	c #676767",
"0+	c #4C4C4C",
"a+	c #FAFAFA",
"b+	c #989898",
"c+	c #646464",
"d+	c #6C6C6C",
"e+	c #A1A1A1",
"f+	c #ACACAC",
"g+	c #969696",
"h+	c #7E7E7E",
"i+	c #747474",
"j+	c #C2C2C2",
"k+	c #595959",
"l+	c #494949",
"m+	c #434343",
"n+	c #3C3C3C",
"o+	c #393939",
"p+	c #696969",
"q+	c #575757",
"r+	c #3B3B3B",
"s+	c #424242",
"t+	c #363636",
"                                                                                                ",
"                    . + @ # $ # @ + . % & * = - ; > , ' ) ! ~ { ] ^ / ( _ :                     ",
"                  < [ } | | 1 1 2 2 } } 3 4 5 6 6 7 7 8 8 9 0 0 a b [ [ c d e                   ",
"                  f g 4 3 4 h 2 2 } 2 2 2 2 2 | | | | 1 1 1 1 1 1 1 1 1 | i :                   ",
"                  f i 9 j a } k l 7 6 6 5 5 5 4 4 4 4 4 3 3 3 3 3 3 3 4 4 m :                   ",
"                  n i o p q r s 8 6 6 5 5 4 4 4 3 3 3 3 3 } } } } } 3 3 3 m :                   ",
"                  t u v w x y 6 6 z A B B B C C C C C C C C C C C D } } } m :                   ",
"          E F G H w w I J 0 2 6 5 j a a 0 0 9 9 9 j j j j j j j j 8 2 K L M N                   ",
"  O F H H H H H H P Q R 7 j 2 5 4 D d d d d d S S S S S S S S S S B | | T U V                   ",
"    E G H H E w G W X 8 6 j | 4 4 0 Y Z Z c c [ [ [ [ b b b b b b 9 1 1 | `  .                  ",
"        G G G E E ..+.6 6 8 1 4 3 c @.#.#.#.$.$.$.$.$.$.D D D D D c h 1 1 %.&.                  ",
"          F *.G E =.-.6 5 7 1 3 } z B B B B C C C ;.;.;.;.;.;.;.;.>.h h h %.,.                  ",
"          E F G G '.i 5 5 7 h } } 4 7 6 6 5 5 4 4 3 3 3 3 3 } } } } ).).).%.!.                  ",
"          O H H   ~.{.0 B 6 h } 2 ].S ^.^./././././.(.(.(.(.(.(.(.@._._._.%.:.                  ",
"          <.w E   [.{.Y @.2 ).2 2 j Z Z c c [ [ b b b a a a a a a j }.}.}.%.|.                  ",
"        H H F w   1.{.4 3 5 _.2 | 9 z Y Y Z c c c c c [ [ [ [ [ [ 0 2.2.}.%.3.                  ",
"        O *.H 4.  5.{.3 } 5 _.| | Z 6.6.6.A A A A B B B C C C C C D 7.2.2.%.8.                  ",
"        9.*.G     0.{.3 } 4 _.| 1 2 } 2 | | 1 1 h h ).).)._._._._._.7.7.7.%.a.      b.c.        ",
"        d.<.F     e.f.} } 4 _.1 h c 6.A A A B B C C C C C C ;.;.;.z m m m %.g.      h.i.        ",
"          E <.    ! f.} 2 3 _.1 h j Z c c [ [ b j m m %.%.%.%.j.%.%.%.%.m %.k.      b.h.        ",
"          G l.    m.f.} 2 3 }.h h 7 b a a a 0 0 6 %.%.j.j.j.j.j.j.j.j.j.%.%.n.      c.o.c.      ",
"          p.G     { f.2 | 3 }.h )._._.}.2.7.7.m %.%.j.j.q.q.q.q.q.q.q.j.j.%.r.      s.h.o.      ",
"          H H     ] q.2 } } 2.h ).1 2 2 2 | 1 h h )._._._.}.}.}.}.7.f.q.q.%.t.      c.o.o.      ",
"                  u.q.>.v.1 2.)._.b #.#.$.D D D >.>.>.].].z z z z b f.f.q.%.t.    o.o.c.w.      ",
"                  x.q.} h 2 2.)._.8 z z Y Y Z c c c [ [ b b a a a 8 {.{.f.%.t.    h.h.w.        ",
"                  y.q.| 1 } 2.)._.4 j 8 8 8 7 6 5 4 4 4 3 3 3 } } 1 i {.{.%.t.    w.o.c.        ",
"                  z.j.| 1 2 7.)._.Z 6.6.A A B B C C ;.;.;.@.@.@.@.Y i i {.%.t.  b.c.h.w.        ",
"                  A.B.| 1 2 7._._.| 3 } 2 | 1 h ).).)._.}.2.2.2.2.m -.i {.%.t.  o.w.w.b.        ",
"                  C.D.E.1 2 7._.}.9 >.>.].z z Y Z Z c [ [ [ b b b 8 -.-.i %.F.w.h.h.c.o.c.      ",
"                  G.H.I.| 2 7._.}.j >.>.].z z Y Z Z c [ 9 J.J.K.K.J.L.-.i M M.c.w.o.w.h.h.c.c.  ",
"                  |.N.O.P.Q.7._.}.| 5 4 3 3 } 2 | 1 h ).}.J.J.K.K.J.L.-.R.S.T.o.c.h.c.w.c.U.V.  ",
"                  8.m W.X.Y.Z._.}.2.2.7.m m %.j.q.f.{.-.-.L.J.J.J.L.L.`.S. +.+h.w.w.c.          ",
"                  g.m | 1 Q.Z._._.}.2.7.m m %.j.q.f.f.i -.L.L.L.L.L.++@+#+$+%+                  ",
"                  n.m | 1 2 7.)._.}.2.7.m m %.j.j.q.f.{.i -.-.L.&+*+=+-+;+%.t.                  ",
"                  t.-.j.q.%.f.f.f.{.{.{.i i i -.-.-.L.L.L.L.J.J.J.L.L.L.L.i t.                  ",
"                  n.>+,+,+,+,+,+,+~ ~ ~ ~ ~ ~ ~ ~ ~ ~ ,+~ ~ ~ ~ ~ ,+,+,+,+'+)+                  ",
"                                      !+!+~+{+]+^+/+(+!+_+:+                                    ",
"                                          <+& [+( ( }+|+                                        ",
"                                    <+^+1+2+3+4+e.e.5+^+6+7+                                    ",
"                                  }+' . ] { e.e.e.e.m.] ] :.(+8+:+                              ",
"                      ,+~ { ] ^ 9+0+| a+c i i i i i i i 6 b+g.c+/ x.d+] m.) 5.                  ",
"                    >.[ j Z #.6.S r.e+f+g+g+g+g+g+g+g+g+g+h+i+j+d /.C >.0 3 7                   ",
"                      k+8.)+r.5+l+/+_ _ _ _ _ _ _ _ _ _ _ |.m+m+2+0+r.n.g.:.                    ",
"                        /+1+<+n+o+/+( p+p+p+p+p+p+p+p+p+p+q+r+~+7+{+]+1+s+                      ",
"                                    6+1+1+^+6+6+6+6+6+^+^+t+                                    ",
"                                                                                                ",
"                                                                                                ",
"                                                                                                "};
