/* XPM */
static char * img_xpm[] = {
"16 14 86 1",
" 	c None",
".	c #888A85",
"+	c #FEFEFE",
"@	c #3F516F",
"#	c #617FAB",
"$	c #6381AD",
"%	c #6884AA",
"&	c #718DA7",
"*	c #5F7EAA",
"=	c #5B7BA8",
"-	c #5778A6",
";	c #5475A4",
">	c #5072A3",
",	c #374762",
"'	c #F6F6F6",
")	c #FDFDFD",
"!	c #435470",
"~	c #738EB6",
"{	c #8FA6AF",
"]	c #DCE5B9",
"^	c #EEF3CB",
"/	c #A4B8A9",
"(	c #6D89B3",
"_	c #6986B1",
":	c #6583AF",
"<	c #6180AD",
"[	c #455672",
"}	c #8099BD",
"|	c #C4D1AF",
"1	c #FEFEF9",
"2	c #FFFFFE",
"3	c #E2EBBE",
"4	c #819AB8",
"5	c #7892B9",
"6	c #7590B7",
"7	c #728DB6",
"8	c #475773",
"9	c #8EA3C4",
"0	c #B6C5B2",
"a	c #F7FADF",
"b	c #FCFDEE",
"c	c #D1DCB1",
"d	c #8CA1C1",
"e	c #889EC1",
"f	c #869CBF",
"g	c #839ABE",
"h	c #485773",
"i	c #9AACCA",
"j	c #9DAFC7",
"k	c #B3C2B7",
"l	c #C5D1B1",
"m	c #A1B3C3",
"n	c #98ABC9",
"o	c #96A9C8",
"p	c #7D899D",
"q	c #95A8C7",
"r	c #93A6C6",
"s	c #495973",
"t	c #A8B7D1",
"u	c #A8B8D2",
"v	c #A7B7D1",
"w	c #A6B6D1",
"x	c #A5B5D0",
"y	c #515151",
"z	c #8691A3",
"A	c #A2B3CE",
"B	c #45546E",
"C	c #9FA9BB",
"D	c #9EA9BA",
"E	c #9EA8BA",
"F	c #9CA7B9",
"G	c #818A9A",
"H	c #3D4E6D",
"I	c #3D4F6D",
"J	c #3B4C6B",
"K	c #2F4262",
"L	c #233659",
"M	c #384151",
"N	c #415474",
"O	c #405374",
"P	c #3D5071",
"Q	c #384C6E",
"R	c #34486A",
"S	c #33476A",
"T	c #818DA2",
"U	c #67758F",
"................",
".++++++++++++++.",
".+@#$%&*=-;;>,'.",
".)!~{]^/(_::<,'.",
".)[}|12345667,'.",
".)890abcdeffg,'.",
".)hijklmnopqr,'.",
".)stuutvwxyzA,'.",
".)BCCCCDEFyyG,'.",
".),HIIHJKLyyM,'.",
".),NOPQRSyyyy,'.",
".),TUUUUUUUUU,'.",
".+'''''''''''').",
"................"};
