/* XPM */
static char * left_xpm[] = {
"16 16 98 2",
"  	c None",
". 	c #3B7504",
"+ 	c #3B7404",
"@ 	c #598B29",
"# 	c #3A7304",
"$ 	c #3A7404",
"% 	c #7FA956",
"& 	c #C8DFB1",
"* 	c #437A10",
"= 	c #A0C37E",
"- 	c #BDD9A3",
"; 	c #CAE0B5",
"> 	c #5D8D2E",
", 	c #B3D296",
"' 	c #AACF88",
") 	c #91C064",
"! 	c #C7DFB1",
"~ 	c #3B7604",
"{ 	c #3A7405",
"] 	c #7DA855",
"^ 	c #B5D497",
"/ 	c #94C26A",
"( 	c #87BA57",
"_ 	c #8BBD5C",
": 	c #C4DDAC",
"< 	c #C5DEAE",
"[ 	c #C6DEAE",
"} 	c #C2DCAA",
"| 	c #457C13",
"1 	c #97BD72",
"2 	c #A7CD84",
"3 	c #80B64D",
"4 	c #7DB549",
"5 	c #82B74F",
"6 	c #85B954",
"7 	c #88BB58",
"8 	c #89BC59",
"9 	c #8ABC5A",
"0 	c #BFDAA6",
"a 	c #5A8C2C",
"b 	c #A5C982",
"c 	c #90BF63",
"d 	c #70AD35",
"e 	c #75B23C",
"f 	c #7BB642",
"g 	c #7FB947",
"h 	c #7AB742",
"i 	c #71B035",
"j 	c #65A827",
"k 	c #5EA31D",
"l 	c #60A420",
"m 	c #68A92B",
"n 	c #B8D69B",
"o 	c #578927",
"p 	c #9DC477",
"q 	c #87BB54",
"r 	c #66AC22",
"s 	c #66AF20",
"t 	c #62AF17",
"u 	c #5CAD0E",
"v 	c #59AC0B",
"w 	c #58A90A",
"x 	c #55A409",
"y 	c #519E07",
"z 	c #4E9A06",
"A 	c #A3CA7E",
"B 	c #41790E",
"C 	c #87B65B",
"D 	c #96CA65",
"E 	c #65B519",
"F 	c #60B50D",
"G 	c #61B70E",
"H 	c #61B60E",
"I 	c #5EB30D",
"J 	c #5AAD0B",
"K 	c #56A609",
"L 	c #6EA23D",
"M 	c #A5D576",
"N 	c #7CC833",
"O 	c #69C211",
"P 	c #67C111",
"Q 	c #AEDB82",
"R 	c #ACD881",
"S 	c #A9D480",
"T 	c #A6CF7F",
"U 	c #52891E",
"V 	c #A3D572",
"W 	c #97DA54",
"X 	c #6EC915",
"Y 	c #B0DE83",
"Z 	c #3D7904",
"` 	c #3F790A",
" .	c #8DC459",
"..	c #A5DC6E",
"+.	c #3C7604",
"@.	c #6BA236",
"#.	c #A9D77D",
"$.	c #4D8419",
"                    .           ",
"                + @ #           ",
"              $ % & #           ",
"            * = - ; #           ",
"        + > , ' ) ! ~ # # # # $ ",
"      { ] ^ / ( _ : < [ < : } # ",
"    | 1 2 3 4 5 6 7 8 9 8 7 0 # ",
". a b c d e f g h i j k l m n # ",
". o p q r s t u v w x y z z A # ",
"    B C D E F G H I J K y z A # ",
"      . L M N O P Q R S T A A # ",
"        ~ U V W X Y Z # # # # $ ",
"            `  ...Y #           ",
"              +.@.#.#           ",
"                ~ $.#           ",
"                    .           "};
