/* XPM */
static char * linkfile_xpm[] = {
"16 14 63 1",
" 	c None",
".	c #888A85",
"+	c #FFFFFF",
"@	c #E3E3E3",
"#	c #FDFDFD",
"$	c #E4E4E4",
"%	c #E5E5E5",
"&	c #E6E6E6",
"*	c #E6E7E6",
"=	c #E5E6E5",
"-	c #E4E4E5",
";	c #E4E3E4",
">	c #BFC0BE",
",	c #B6B7B4",
"'	c #AAABA8",
")	c #C0C1BF",
"!	c #EAE9E9",
"~	c #E8E9E9",
"{	c #E4E5E4",
"]	c #FBFBFB",
"^	c #C7C8C6",
"/	c #E9E8E8",
"(	c #EAEAEA",
"_	c #C1C2C0",
":	c #E9E9E9",
"<	c #E7E7E6",
"[	c #E8E8E9",
"}	c #EBEBEB",
"|	c #EDEDED",
"1	c #EFEFEE",
"2	c #ECECEB",
"3	c #E9E9EA",
"4	c #F8F8F8",
"5	c #E8E8E8",
"6	c #EAEBEB",
"7	c #EFEFEF",
"8	c #F1F2F1",
"9	c #F3F3F3",
"0	c #EEEEEE",
"a	c #ECEBEC",
"b	c #F6F6F6",
"c	c #ECECEC",
"d	c #F2F2F1",
"e	c #F4F4F4",
"f	c #F0F0F0",
"g	c #EAEBEA",
"h	c #EDEDEE",
"i	c #F1F1F1",
"j	c #F3F3F4",
"k	c #F2F1F1",
"l	c #EFEEEF",
"m	c #F2F1F2",
"n	c #F5F5F4",
"o	c #FDFDFC",
"p	c #FCFBFB",
"q	c #F9F9F9",
"r	c #F6F5F6",
"s	c #EFF0EF",
"t	c #F5F5F5",
"u	c #FEFEFE",
"v	c #FCFCFC",
"w	c #F5F6F6",
"x	c #FAFAFA",
" .............. ",
".++++++++++++++.",
".+@@@@@@@@@@@@#.",
".+@@@$%&*&=-;@#.",
".+@$>,'')!~'&{].",
".+$^/('''_'':<].",
".+&[}|1'''''234.",
".+56|789''''0ab.",
".+!c7de'''''f|7.",
".+ghij''''''kl7.",
".+}0mn4]opqr9s7.",
".+60mt4]uvqw977.",
".+vvvvvvxxxbbb7.",
" .............. "};
