/* XPM */
static char * linkfile_xpm[] = {
"16 14 43 1",
" 	c None",
".	c #9C5627",
"+	c #F6AF6F",
"@	c #F5A86A",
"#	c #F2A261",
"$	c #000000",
"%	c #5C2A01",
"&	c #F3A866",
"*	c #F3A668",
"=	c #F3A362",
"-	c #F09959",
";	c #F3A764",
">	c #F2A363",
",	c #F09C59",
"'	c #F4AA69",
")	c #F5AE6E",
"!	c #F6B071",
"~	c #F7B67C",
"{	c #F6B275",
"]	c #F7B478",
"^	c #F9C088",
"/	c #F6B173",
"(	c #FDEFD4",
"_	c #FDE7C8",
":	c #FDE5C4",
"<	c #FAD09F",
"[	c #FAC893",
"}	c #FDF7E8",
"|	c #FDF3E0",
"1	c #FDF0D8",
"2	c #FDE3BE",
"3	c #FBDFB6",
"4	c #FBD7A8",
"5	c #FDEFD6",
"6	c #FDFAF4",
"7	c #FDF8EC",
"8	c #FDF4E2",
"9	c #FDE8C8",
"0	c #F7BB80",
"a	c #FFFFFF",
"b	c #FDFDFA",
"c	c #FDF2DC",
"d	c #F19E5A",
"         .      ",
"      ....      ",
"    ..++@#$     ",
"   ..%&*&=.     ",
"  ...%-;;>,.    ",
"  .$%%'$$)!.    ",
"  .~{]^$$$$/$   ",
"   .$$$$$$$$.   ",
"   .(_:$$$$<[.  ",
"   .}|1$$234&.  ",
"   .5678590..%  ",
"    .abcd..%%%  ",
"    ......%%%   ",
"     .%%%%%%    "};
