/* XPM */
static char * linkdir_xpm[] = {
"16 14 29 1",
" 	c None",
".	c #3A3A3A",
"+	c #C7CAB1",
"@	c #B1B39E",
"#	c #B3B7A1",
"$	c #A1A391",
"%	c #EDEFE6",
"&	c #E5E6D5",
"*	c #F0F1E9",
"=	c #D1D3C4",
"-	c #DCDDD6",
";	c #DFE2CE",
">	c #CED1BB",
",	c #D8DCC0",
"'	c #000000",
")	c #C8CBB3",
"!	c #C4C7AF",
"~	c #B8BBA6",
"{	c #A2A492",
"]	c #E9EBDE",
"^	c #98998A",
"/	c #8F9084",
"(	c #BABEA8",
"_	c #ACAF9C",
":	c #C3C6AE",
"<	c #ACAE9B",
"[	c #86887C",
"}	c #DCE0C7",
"|	c #7A7C73",
"                ",
"   ....         ",
"  .+@+@.        ",
" .#$#$#$......  ",
" .%&*&*&%*=-;>. ",
" .;+,+,'')!~+{. ",
" .],+,+''''+~^. ",
" .;+''''''''~/. ",
" .],+,!''''(_/. ",
" .;+,:+''~~_<[. ",
" .],:+~+~~<<{[. ",
" .}^{^<^{^/[[|. ",
"  ............  ",
"                "};
