/* XPM */
static char * man_xpm[] = {
"16 16 94 2",
"  	c None",
". 	c #333333",
"+ 	c #444444",
"@ 	c #442E2E",
"# 	c #845656",
"$ 	c #8B5A5A",
"% 	c #845050",
"& 	c #1A1A1A",
"* 	c #5D5A5A",
"= 	c #614141",
"- 	c #A76D6D",
"; 	c #A06262",
"> 	c #9F6060",
", 	c #1B1010",
"' 	c #B1B1B0",
") 	c #332020",
"! 	c #A06868",
"~ 	c #A26666",
"{ 	c #7C4B4B",
"] 	c #443D3D",
"^ 	c #4E4A4A",
"/ 	c #714C4C",
"( 	c #A66A6A",
"_ 	c #352020",
": 	c #989897",
"< 	c #9E9F9D",
"[ 	c #666666",
"} 	c #6B4343",
"| 	c #A86F6F",
"1 	c #6A4040",
"2 	c #635C5B",
"3 	c #ACACAB",
"4 	c #7A7D76",
"5 	c #A66E6E",
"6 	c #A46868",
"7 	c #503030",
"8 	c #797979",
"9 	c #ABACA9",
"0 	c #282927",
"a 	c #5B5B5A",
"b 	c #B4B4B3",
"c 	c #7C8078",
"d 	c #2F2F2F",
"e 	c #453939",
"f 	c #5F3A3A",
"g 	c #6E4646",
"h 	c #714746",
"i 	c #825A55",
"j 	c #915C5B",
"k 	c #9E5F5F",
"l 	c #965B5B",
"m 	c #5B3F3F",
"n 	c #A7A8A5",
"o 	c #1B1B1A",
"p 	c #4C4C4C",
"q 	c #6F4D4E",
"r 	c #796C6B",
"s 	c #787876",
"t 	c #82837F",
"u 	c #8B8D85",
"v 	c #786764",
"w 	c #563737",
"x 	c #422828",
"y 	c #3D3D3C",
"z 	c #B2B2B1",
"A 	c #6A6C69",
"B 	c #4C4C4B",
"C 	c #6D4A4C",
"D 	c #D7C4C2",
"E 	c #F1F0EC",
"F 	c #E5E4E0",
"G 	c #CAC9C5",
"H 	c #A6A5A3",
"I 	c #9B9B98",
"J 	c #939392",
"K 	c #333332",
"L 	c #473B3C",
"M 	c #262221",
"N 	c #423B3A",
"O 	c #C7ADAA",
"P 	c #E2E1DB",
"Q 	c #E9E8E5",
"R 	c #BABAB8",
"S 	c #60615F",
"T 	c #5D5E5D",
"U 	c #191919",
"V 	c #6A4C4C",
"W 	c #A69F99",
"X 	c #C1BFBB",
"Y 	c #8C897F",
"Z 	c #454743",
"` 	c #555555",
" .	c #3C3535",
"..	c #472B2B",
"                                ",
"            . . . . . . . +     ",
"          @ # $ % % % % % &     ",
"        * = - ; > > > > , '     ",
"        ) ! ~ > > > > { ] '     ",
"      ^ / ( ; > > > > _ : < [   ",
"    + } | ; > > > > 1 2 3 4 .   ",
"    & 5 6 > > > > > 7 8 9 0     ",
"  . { | > > > > > 1 a b c d     ",
"  e f g h i j k l m 8 n o       ",
"p q r s t u v w x y z A B       ",
"p C D E E F G H I J n K         ",
"  L M N O P E E Q R S T         ",
"        U U V W X Y Z           ",
"            ` .  ...p           ",
"                  p             "};
