/* XPM */
static char * open_dir_xpm[] = {
"16 14 67 1",
" 	c None",
".	c #555753",
"+	c #6D6F6B",
"@	c #676965",
"#	c #636561",
"$	c #6A6C68",
"%	c #C0C0BF",
"&	c #969795",
"*	c #C9C9C9",
"=	c #A6A6A6",
"-	c #A7A7A7",
";	c #A8A8A8",
">	c #61635F",
",	c #5D5F5B",
"'	c #3465A4",
")	c #436B9D",
"!	c #595B57",
"~	c #AEC7E3",
"{	c #AFC8E3",
"]	c #B9CFE7",
"^	c #4E7AB1",
"/	c #A7C3E0",
"(	c #8CB1D8",
"_	c #7C8EA4",
":	c #5C84B7",
"<	c #6D85A4",
"[	c #7D9DC6",
"}	c #89AED6",
"|	c #A6C2E0",
"1	c #B1CAE4",
"2	c #8BB0D7",
"3	c #8AAFD7",
"4	c #88AED6",
"5	c #85ACD5",
"6	c #81A9D4",
"7	c #7CA6D2",
"8	c #76A2D0",
"9	c #729FCF",
"0	c #9CBBDD",
"a	c #58769B",
"b	c #9EBDDE",
"c	c #709ECE",
"d	c #709DCF",
"e	c #6E9DCE",
"f	c #6E9CCE",
"g	c #6D9CCE",
"h	c #6C9BCE",
"i	c #6B9BCD",
"j	c #6A9ACE",
"k	c #6999CD",
"l	c #6899CD",
"m	c #94B6DB",
"n	c #A9ABA9",
"o	c #89AFD7",
"p	c #6B9ACD",
"q	c #6A9ACD",
"r	c #6898CD",
"s	c #6698CC",
"t	c #6598CD",
"u	c #6597CC",
"v	c #6496CC",
"w	c #6395CC",
"x	c #9ABADE",
"y	c #537196",
"z	c #455D79",
"A	c #3E6089",
"B	c #3F6086",
".+++++@@#       ",
"$%&&&&&&&.....  ",
"@*=========-;.  ",
">%&&&&&&&&&&&.  ",
",*=========-;.  ",
",%&'''''''''''')",
"!*='~{{{{{{{{{]'",
".%&^/(((((((((~'",
".*_:/(((((((((~'",
".%<[/((((((((}|'",
".*'12(234567890'",
".%abcdefghijklm'",
".noipqkrstuvwxyz",
"A'''''''''''''B "};
