/* XPM */
static char * right_xpm[] = {
"16 16 100 2",
"  	c None",
". 	c #3B7504",
"+ 	c #3A7304",
"@ 	c #598C2A",
"# 	c #3A7404",
"$ 	c #CBE1B7",
"% 	c #82AB5A",
"& 	c #CEE3BB",
"* 	c #C3DCAB",
"= 	c #A4C684",
"- 	c #437A10",
"; 	c #3B7604",
"> 	c #CBE0B6",
", 	c #99C46F",
"' 	c #B1D291",
") 	c #B7D49C",
"! 	c #5F8F31",
"~ 	c #3B7404",
"{ 	c #C0DBA7",
"] 	c #C2DCAA",
"^ 	c #C5DDAD",
"/ 	c #C6DEAF",
"( 	c #C7DEB0",
"_ 	c #91C164",
": 	c #8FC161",
"< 	c #9DC873",
"[ 	c #BBD99F",
"} 	c #81AB5A",
"| 	c #3A7405",
"1 	c #BDD9A3",
"2 	c #85B954",
"3 	c #88BB58",
"4 	c #8BBC5B",
"5 	c #8BBD5C",
"6 	c #8CBE5C",
"7 	c #8DC15C",
"8 	c #8DC25A",
"9 	c #8AC255",
"0 	c #8CC358",
"a 	c #AFD48C",
"b 	c #9CC37A",
"c 	c #467C14",
"d 	c #B9D79C",
"e 	c #74AF3B",
"f 	c #6EAC33",
"g 	c #68A92B",
"h 	c #6BAC2F",
"i 	c #78B63D",
"j 	c #82BE49",
"k 	c #89C350",
"l 	c #88C44D",
"m 	c #84C249",
"n 	c #80BE44",
"o 	c #9BCA6D",
"p 	c #AACE89",
"q 	c #5E8F30",
"r 	c #A3CA7E",
"s 	c #4E9A06",
"t 	c #52A007",
"u 	c #57A709",
"v 	c #5BAE0B",
"w 	c #5FB20E",
"x 	c #66B817",
"y 	c #6CBA1F",
"z 	c #6FBA26",
"A 	c #8DC655",
"B 	c #9EC976",
"C 	c #568926",
"D 	c #4F9C06",
"E 	c #54A408",
"F 	c #5AAC0B",
"G 	c #5EB30D",
"H 	c #62B90E",
"I 	c #64BC0F",
"J 	c #6CBF1C",
"K 	c #9CD267",
"L 	c #8BBB5D",
"M 	c #427A0E",
"N 	c #A4CC7E",
"O 	c #A7D17F",
"P 	c #AAD581",
"Q 	c #61B70E",
"R 	c #66BF10",
"S 	c #7FCB34",
"T 	c #A8DA78",
"U 	c #71A63E",
"V 	c #3C7804",
"W 	c #ABD681",
"X 	c #64BA11",
"Y 	c #92D352",
"Z 	c #A5D773",
"` 	c #538B1E",
" .	c #3C7604",
"..	c #ABD781",
"+.	c #A0D56C",
"@.	c #8BC158",
"#.	c #40790A",
"$.	c #A6D37B",
"%.	c #6AA136",
"&.	c #4D8418",
"          .                     ",
"          + @ #                 ",
"          + $ % #               ",
"          + & * = -             ",
"# + + + + ; > , ' ) ! ~         ",
"+ { ] ^ / ( ( _ : < [ } |       ",
"+ 1 2 3 4 5 6 7 8 9 0 a b c     ",
"+ d e f g h i j k l m n o p q . ",
"+ r s s s t u v w x y z A B C . ",
"+ r s s D E F G H I J K L M     ",
"+ r r r N O P Q R S T U ;       ",
"# + + + + V W X Y Z `  .        ",
"          + ..+.@.#.            ",
"          + $.%. .              ",
"          + &.;                 ",
"          .                     "};
