/* XPM */
static char * rpm_xpm[] = {
"16 16 49 1",
" 	c None",
".	c #828282",
"+	c #737373",
"@	c #939393",
"#	c #ADADAD",
"$	c #A9A9A9",
"%	c #A3A3A3",
"&	c #8C7D7D",
"*	c #AB7A79",
"=	c #A59999",
"-	c #878787",
";	c #444444",
">	c #6A6A6A",
",	c #E1E1E1",
"'	c #F8F8F8",
")	c #FEFEFE",
"!	c #FFFFFF",
"~	c #FBFBFB",
"{	c #F4EFEF",
"]	c #E5B5B3",
"^	c #B94D4A",
"/	c #AC7574",
"(	c #242424",
"_	c #474747",
":	c #EDEDED",
"<	c #D4D4D4",
"[	c #F4F4F4",
"}	c #FDFDFD",
"|	c #E0A2A0",
"1	c #B62E2A",
"2	c #AE6C6A",
"3	c #404040",
"4	c #040404",
"5	c #8C8C8C",
"6	c #333333",
"7	c #B8332F",
"8	c #B22F2C",
"9	c #AA6968",
"0	c #515151",
"a	c #B0B0B0",
"b	c #DADADA",
"c	c #D5D5D5",
"d	c #DBDBDB",
"e	c #DEDEDE",
"f	c #DCDCDC",
"g	c #D1D1D1",
"h	c #CACACA",
"i	c #BBBBBB",
"j	c #9C9898",
"                ",
"                ",
"   .+@#$#%&*=   ",
" -;>,')!)~{]^/  ",
"-(_:!!~<[})!|12 ",
"345!!!'666666789",
"30abccdefghij777",
"6666666666666666",
"                ",
"   6 6666 66666 ",
"  6  6  6 6 6 6 ",
"  6  6  6 6 6 6 ",
"  6  6666 6 6 6 ",
"     6          ",
"     6          ",
"                "};
