/* XPM */
static char * sound_xpm[] = {
"16 14 28 1",
" 	c None",
".	c #757D35",
"+	c #757F2A",
"@	c #778132",
"#	c #C8D17B",
"$	c #747E2B",
"%	c #747D2A",
"&	c #656C2B",
"*	c #C2CD6E",
"=	c #5D632A",
"-	c #838D30",
";	c #B7C350",
">	c #C6D077",
",	c #D5DB9A",
"'	c #B3C047",
")	c #8B9633",
"!	c #C2CC6B",
"~	c #C0CA67",
"{	c #C9D37E",
"]	c #B2BF46",
"^	c #848E31",
"/	c #707930",
"(	c #A0AD3A",
"_	c #A8B53E",
":	c #B7C354",
"<	c #727B2E",
"[	c #616926",
"}	c #505623",
"     .+++++++++@",
"     +#########+",
"     $#########+",
"     $#++++++%#+",
"     $#+     $#+",
"     $#+     $#+",
"     +#+     +#+",
"     +#+     +#+",
"     $#+     $#+",
"   &++*+   &++*+",
" =-;>,') =-;>,')",
" +!~{]^/ +!~{]^ ",
" +(_:)<  +(_:)< ",
"  [++}    [++}  "};
