/* XPM */
static char * stop_xpm[] = {
"32 32 365 2",
"  	c None",
". 	c #AB2F2F",
"+ 	c #BF4242",
"@ 	c #BE4242",
"# 	c #BD4040",
"$ 	c #BD3F3F",
"% 	c #B33434",
"& 	c #C14545",
"* 	c #EC7676",
"= 	c #E35B5B",
"- 	c #E35A5A",
"; 	c #E35959",
"> 	c #E25858",
", 	c #E25656",
"' 	c #E25454",
") 	c #E96666",
"! 	c #CE4F4F",
"~ 	c #C24747",
"{ 	c #EC7272",
"] 	c #D94141",
"^ 	c #D94040",
"/ 	c #D93F3F",
"( 	c #D93E3E",
"_ 	c #D83D3D",
": 	c #D83C3C",
"< 	c #D83B3B",
"[ 	c #D83A3A",
"} 	c #E65E5E",
"| 	c #CD4D4D",
"1 	c #C44949",
"2 	c #EC7373",
"3 	c #D94242",
"4 	c #E65D5D",
"5 	c #CC4949",
"6 	c #C64B4B",
"7 	c #EC7171",
"8 	c #DA4343",
"9 	c #DA4444",
"0 	c #D83939",
"a 	c #E65C5C",
"b 	c #C84545",
"c 	c #EB7171",
"d 	c #DA4545",
"e 	c #D73838",
"f 	c #E55B5B",
"g 	c #C64242",
"h 	c #C64D4D",
"i 	c #EB7070",
"j 	c #DB4343",
"k 	c #DF3D3D",
"l 	c #DA4646",
"m 	c #D93B3B",
"n 	c #DE3232",
"o 	c #D73A3A",
"p 	c #D63838",
"q 	c #D53737",
"r 	c #E65959",
"s 	c #C43D3D",
"t 	c #C84F4F",
"u 	c #EB6E6E",
"v 	c #F32424",
"w 	c #F91B1B",
"x 	c #E23A3A",
"y 	c #DA3D3D",
"z 	c #F22424",
"A 	c #F91C1C",
"B 	c #E13030",
"C 	c #D63A3A",
"D 	c #D53939",
"E 	c #D33737",
"F 	c #D23636",
"G 	c #E35858",
"H 	c #C13B3B",
"I 	c #E96C6C",
"J 	c #DB4141",
"K 	c #F32525",
"L 	c #E1AAAA",
"M 	c #DBD0D0",
"N 	c #F43434",
"O 	c #E23939",
"P 	c #DA3E3E",
"Q 	c #E4A4A4",
"R 	c #DBD3D3",
"S 	c #F23838",
"T 	c #E02F2F",
"U 	c #D43939",
"V 	c #D13636",
"W 	c #D03535",
"X 	c #E35555",
"Y 	c #BD3737",
"Z 	c #950E0E",
"` 	c #F07E7E",
" .	c #F81616",
"..	c #DBDADA",
"+.	c #DCDBDB",
"@.	c #DED3D3",
"#.	c #F43535",
"$.	c #E23737",
"%.	c #DA3F3F",
"&.	c #F32626",
"*.	c #E6A7A7",
"=.	c #DDDCDC",
"-.	c #DCD4D4",
";.	c #F72A2A",
">.	c #DC2F2F",
",.	c #D23737",
"'.	c #CE3333",
").	c #E75E5E",
"!.	c #910A0A",
"~.	c #970D0D",
"{.	c #EC2C2C",
"].	c #EC6D6D",
"^.	c #DEDDDD",
"/.	c #DFDEDE",
"(.	c #E1D6D6",
"_.	c #F53B3B",
":.	c #E13838",
"<.	c #F32E2E",
"[.	c #E8ABAB",
"}.	c #E1E0E0",
"|.	c #E0DFDF",
"1.	c #E3BCBC",
"2.	c #F33333",
"3.	c #D73535",
"4.	c #D13737",
"5.	c #D03636",
"6.	c #CF3434",
"7.	c #950C0C",
"8.	c #EC3333",
"9.	c #ED7474",
"0.	c #E2E1E1",
"a.	c #E3E2E2",
"b.	c #E5DBDB",
"c.	c #F54545",
"d.	c #F92727",
"e.	c #EAB0B0",
"f.	c #E4E3E3",
"g.	c #E6C1C1",
"h.	c #F43C3C",
"i.	c #D53838",
"j.	c #CF3535",
"k.	c #CE3434",
"l.	c #CD3333",
"m.	c #E15454",
"n.	c #930A0A",
"o.	c #EC3838",
"p.	c #EF7C7C",
"q.	c #E5E4E4",
"r.	c #E6E5E5",
"s.	c #E8DEDE",
"t.	c #EBC9C9",
"u.	c #E7E6E6",
"v.	c #E9C5C5",
"w.	c #F44343",
"x.	c #D13838",
"y.	c #D03737",
"z.	c #CF3636",
"A.	c #CB3232",
"B.	c #E05454",
"C.	c #ED3F3F",
"D.	c #F18484",
"E.	c #E8E7E7",
"F.	c #E9E8E8",
"G.	c #EAE9E9",
"H.	c #ECCACA",
"I.	c #F54C4C",
"J.	c #CE3535",
"K.	c #CD3434",
"L.	c #CB3333",
"M.	c #CA3232",
"N.	c #DF5151",
"O.	c #EC4444",
"P.	c #F57D7D",
"Q.	c #EBEAEA",
"R.	c #ECEBEB",
"S.	c #EED8D8",
"T.	c #F94C4C",
"U.	c #D53A3A",
"V.	c #CC2929",
"W.	c #C92020",
"X.	c #C51919",
"Y.	c #C41616",
"Z.	c #C21212",
"`.	c #C11414",
" +	c #DB3939",
".+	c #900404",
"++	c #EB6F6F",
"@+	c #D93C3C",
"#+	c #F45050",
"$+	c #F1BFBF",
"%+	c #EEEDED",
"&+	c #EFEEEE",
"*+	c #EFE7E7",
"=+	c #F76969",
"-+	c #D72A2A",
";+	c #C60C0C",
">+	c #C20101",
",+	c #C10000",
"'+	c #BF0000",
")+	c #BE0000",
"!+	c #BD0000",
"~+	c #BC0000",
"{+	c #BB0000",
"]+	c #D82727",
"^+	c #8E0000",
"/+	c #960C0C",
"(+	c #D73737",
"_+	c #D93A3A",
":+	c #F45757",
"<+	c #F1C3C3",
"[+	c #F0EFEF",
"}+	c #F1F0F0",
"|+	c #F2F1F1",
"1+	c #F1E9E9",
"2+	c #F56E6E",
"3+	c #D01414",
"4+	c #C00000",
"5+	c #BA0000",
"6+	c #D72626",
"7+	c #EB6D6D",
"8+	c #D73636",
"9+	c #D83838",
"0+	c #F35D5D",
"a+	c #F1C5C5",
"b+	c #F3F2F2",
"c+	c #F6DADA",
"d+	c #F7A4A4",
"e+	c #F4F3F3",
"f+	c #F1EAEA",
"g+	c #F57777",
"h+	c #CD1717",
"i+	c #B90000",
"j+	c #D72525",
"k+	c #EB6C6C",
"l+	c #D73434",
"m+	c #F36363",
"n+	c #F0C7C7",
"o+	c #F7DDDD",
"p+	c #F46969",
"q+	c #E84848",
"r+	c #F7A6A6",
"s+	c #F5F4F4",
"t+	c #F48080",
"u+	c #CC1A1A",
"v+	c #B80000",
"w+	c #D62424",
"x+	c #EB6969",
"y+	c #D63333",
"z+	c #F76868",
"A+	c #EFC7C7",
"B+	c #EDECEC",
"C+	c #F7DFDF",
"D+	c #F46F6F",
"E+	c #C90909",
"F+	c #C40000",
"G+	c #E44A4A",
"H+	c #F7ADAD",
"I+	c #F6F5F5",
"J+	c #EFE9E9",
"K+	c #F88686",
"L+	c #C81919",
"M+	c #B60000",
"N+	c #D42323",
"O+	c #8D0000",
"P+	c #910606",
"Q+	c #E76A6A",
"R+	c #DD4444",
"S+	c #D63232",
"T+	c #ED6363",
"U+	c #F2AFAF",
"V+	c #F5DEDE",
"W+	c #F47777",
"X+	c #C20000",
"Y+	c #E25050",
"Z+	c #F7B2B2",
"`+	c #F1E1E1",
" @	c #F38383",
".@	c #C41414",
"+@	c #B60101",
"@@	c #DA2727",
"#@	c #980E0E",
"$@	c #E46464",
"%@	c #DE4343",
"&@	c #D63131",
"*@	c #D52E2E",
"=@	c #D12222",
"-@	c #E95D5D",
";@	c #F3B3B3",
">@	c #F3DFDF",
",@	c #F47E7E",
"'@	c #C90A0A",
")@	c #C30000",
"!@	c #E25757",
"~@	c #F5B7B7",
"{@	c #F4E5E5",
"]@	c #F28B8B",
"^@	c #C10E0E",
"/@	c #B70000",
"(@	c #D21F1F",
"_@	c #AE1111",
":@	c #950A0A",
"<@	c #E14C4C",
"[@	c #D82020",
"}@	c #CC0505",
"|@	c #CA0000",
"1@	c #C90000",
"2@	c #C80000",
"3@	c #E75D5D",
"4@	c #F98A8A",
"5@	c #C90B0B",
"6@	c #E05A5A",
"7@	c #FA9494",
"8@	c #D32121",
"9@	c #AB1010",
"0@	c #910404",
"a@	c #DD3F3F",
"b@	c #D31616",
"c@	c #C70000",
"d@	c #C60000",
"e@	c #D32222",
"f@	c #A80F0F",
"g@	c #910303",
"h@	c #DC3D3D",
"i@	c #D21515",
"j@	c #B70202",
"k@	c #A50D0D",
"l@	c #DB3A3A",
"m@	c #CF1515",
"n@	c #B70303",
"o@	c #D52424",
"p@	c #A20C0C",
"q@	c #8D0303",
"r@	c #D83737",
"s@	c #CF1414",
"t@	c #B90303",
"u@	c #D32424",
"v@	c #9D0B0B",
"w@	c #880303",
"x@	c #D63434",
"y@	c #CD1313",
"z@	c #B80404",
"A@	c #D42626",
"B@	c #980A0A",
"C@	c #840202",
"D@	c #CD2D2D",
"E@	c #D43030",
"F@	c #D32F2F",
"G@	c #D32D2D",
"H@	c #D12D2D",
"I@	c #D12B2B",
"J@	c #D12A2A",
"K@	c #D02828",
"L@	c #D02727",
"M@	c #D02626",
"N@	c #CF2424",
"O@	c #CF2626",
"P@	c #940909",
"Q@	c #560000",
"R@	c #510000",
"S@	c #4F0000",
"T@	c #4C0000",
"U@	c #4B0000",
"V@	c #4A0000",
"W@	c #4E0000",
"X@	c #540000",
"                    . + + + + + + @ # # $ %                     ",
"                  & * = = - - - ; > > , ' ) !                   ",
"                ~ { ] ^ ^ ^ ^ / ( ( _ : < [ } |                 ",
"              1 2 3 3 3 3 3 ] ^ ^ / ( _ : < [ 4 5               ",
"            6 7 3 8 8 9 8 8 3 3 ] ^ / ( : < [ 0 a b             ",
"          6 c 3 8 9 d d d 9 9 8 3 ] / ( _ : < 0 e f g           ",
"        h i 3 8 9 d j k l l d 8 3 ] ^ / m n < o p q r s         ",
"      t u ] 3 8 d j v w x l d 9 8 ] ^ y z A B C D E F G H       ",
"    t I / ] 3 8 J K L M N O d 9 3 ] P z Q R S T U E V W X Y     ",
"  Z ` ( / ^ ] 3  .L ..+.@.#.$.8 3 %.&.*.=.+.-.;.>.,.V W '.).!.  ",
"  ~.2 _ ( ^ ] 3 {.].=.^./.(._.:.%.<.[.}.|./.1.2.3.4.5.6.'., 7.  ",
"  ~.{ _ ( / / ^ ] 8.9.}.0.a.b.c.d.e.f.a.0.g.h.i.4.5.j.k.l.m.n.  ",
"  ~.{ : _ _ ( / ^ ^ o.p.f.q.r.s.t.u.r.r.v.w.i.x.y.z.k.l.A.B.n.  ",
"  ~.{ < < : _ ( ( / / C.D.E.F.F.G.F.F.H.I.D x.y.z.J.K.L.M.N.n.  ",
"  ~.7 0 [ < : : _ _ _ _ O.P.Q.R.R.R.S.T.U.x.6.V.W.X.Y.Z.`. +.+  ",
"  ~.++e 0 [ [ < < < : @+#+$+%+&+&+&+*+=+-+;+>+,+'+)+!+~+{+]+^+  ",
"  /+++(+e e 0 0 [ [ _+:+<+&+[+}+|+}+}+1+2+3+4+'+)+!+~+{+5+6+^+  ",
"  /+7+8+8+(+(+e e 9+0+a+&+}+b+c+d+e+b+|+f+g+h+)+!+~+{+5+i+j+^+  ",
"  /+k+l+3.3.8+8+9+m+n+&+}+b+o+p+q+r+s+e+|+f+t+u+~+{+5+i+v+w+^+  ",
"  /+x+y+y+l+l+3.z+A+B+[+|+C+D+E+F+G+H+I+b+}+J+K+L+5+i+v+M+N+O+  ",
"  P+Q+R+S+S+y+y+T+U+%+[+V+W+E+F+X+,+Y+Z+e+|+`+ @.@i+v+M++@@@O+  ",
"    #@$@%@&@&@*@=@-@;@>@,@'@)@X+,+4+'+!@~@{@]@^@i+/@M++@(@_@    ",
"      :@<@[@}@|@1@2@3@4@5@)@X+,+4+'+)+!+6@7@^@i+/@M++@8@9@      ",
"        0@a@b@1@2@c@d@F+)@X+,+4+'+)+!+~+{+5+v+/@M++@e@f@        ",
"          g@h@i@c@d@F+)@X+,+4+'+)+!+~+{+5+v+/@M+j@N+k@          ",
"            g@l@m@F+)@X+,+4+'+)+!+~+{+i+v+/@M+n@o@p@            ",
"              q@r@s@X+,+4+'+)+!+~+5+i+v+/@M+t@u@v@              ",
"                w@x@y@4+'+)+!+~+5+i+v+/@M+z@A@B@                ",
"                  C@D@E@F@G@H@I@J@K@L@M@N@O@P@                  ",
"                      Q@R@S@T@U@V@V@U@W@R@X@                    ",
"                                                                ",
"                                                                "};
