/* XPM */

/* This was drawn by Sean Finkel <alarion@worldspy.net> */

static char * stop_xpm[] = {
"32 32 256 2",
"  	c None",
". 	c #C0C0C0",
"+ 	c #FFF7F7",
"@ 	c #BDB5B5",
"# 	c #9C9494",
"$ 	c #F7E7E7",
"% 	c #FFEFEF",
"& 	c #D6C6C6",
"* 	c #C6B5B5",
"= 	c #CEBDBD",
"- 	c #FFE7E7",
"; 	c #BDA5A5",
"> 	c #FFDEDE",
", 	c #423939",
"' 	c #F7D6D6",
") 	c #736363",
"! 	c #6B5A5A",
"~ 	c #CEADAD",
"{ 	c #FFD6D6",
"] 	c #C6A5A5",
"^ 	c #F7CECE",
"/ 	c #BD9C9C",
"( 	c #5A4A4A",
"_ 	c #846B6B",
": 	c #FFCECE",
"< 	c #CEA5A5",
"[ 	c #C69C9C",
"} 	c #B58C8C",
"| 	c #FFC6C6",
"1 	c #4A3939",
"2 	c #CE9C9C",
"3 	c #634A4A",
"4 	c #C69494",
"5 	c #423131",
"6 	c #A57B7B",
"7 	c #DEA5A5",
"8 	c #FFBDBD",
"9 	c #7B5A5A",
"0 	c #D69C9C",
"a 	c #946B6B",
"b 	c #AD7B7B",
"c 	c #E7A5A5",
"d 	c #C68C8C",
"e 	c #FFB5B5",
"f 	c #523939",
"g 	c #845A5A",
"h 	c #B57B7B",
"i 	c #CE8C8C",
"j 	c #FFADAD",
"k 	c #C68484",
"l 	c #EF9C9C",
"m 	c #000000",
"n 	c #BD7B7B",
"o 	c #FFA5A5",
"p 	c #422929",
"q 	c #845252",
"r 	c #C67B7B",
"s 	c #AD6B6B",
"t 	c #000000",
"u 	c #6B4242",
"v 	c #FF9C9C",
"w 	c #E78C8C",
"x 	c #F79494",
"y 	c #523131",
"z 	c #DE8484",
"A 	c #B56B6B",
"B 	c #C67373",
"C 	c #FF9494",
"D 	c #D67B7B",
"E 	c #844A4A",
"F 	c #CE7373",
"G 	c #DE7B7B",
"H 	c #FF8C8C",
"I 	c #C66B6B",
"J 	c #D67373",
"K 	c #6B3939",
"L 	c #E77B7B",
"M 	c #F78484",
"N 	c #BD6363",
"O 	c #AD5A5A",
"P 	c #DE7373",
"Q 	c #FF8484",
"R 	c #422121",
"S 	c #C66363",
"T 	c #D66B6B",
"U 	c #633131",
"V 	c #FF7B7B",
"W 	c #AD5252",
"X 	c #8C4242",
"Y 	c #D66363",
"Z 	c #E76B6B",
"` 	c #C65A5A",
" .	c #B55252",
"..	c #FF7373",
"+.	c #944242",
"@.	c #A54A4A",
"#.	c #CE5A5A",
"$.	c #F76B6B",
"%.	c #733131",
"&.	c #AD4A4A",
"*.	c #E76363",
"=.	c #9C4242",
"-.	c #FF6B6B",
";.	c #C65252",
">.	c #B54A4A",
",.	c #DE5A5A",
"'.	c #A54242",
").	c #F76363",
"!.	c #CE5252",
"~.	c #FF6363",
"{.	c #6B2929",
"].	c #EF5A5A",
"^.	c #843131",
"/.	c #C64A4A",
"(.	c #DE5252",
"_.	c #9C3939",
":.	c #B54242",
"<.	c #732929",
"[.	c #FF5A5A",
"}.	c #BD4242",
"|.	c #A53939",
"1.	c #D64A4A",
"2.	c #EF5252",
"3.	c #DE4A4A",
"4.	c #943131",
"5.	c #F75252",
"6.	c #CE4242",
"7.	c #E74A4A",
"8.	c #FF5252",
"9.	c #842929",
"0.	c #EF4A4A",
"a.	c #000000",
"b.	c #D64242",
"c.	c #BD3939",
"d.	c #A53131",
"e.	c #8C2929",
"f.	c #FF4A4A",
"g.	c #732121",
"h.	c #C63939",
"i.	c #E74242",
"j.	c #942929",
"k.	c #B53131",
"l.	c #7B2121",
"m.	c #000000",
"n.	c #9C2929",
"o.	c #FF4242",
"p.	c #842121",
"q.	c #A52929",
"r.	c #C63131",
"s.	c #EF3939",
"t.	c #AD2929",
"u.	c #D63131",
"v.	c #6B1818",
"w.	c #942121",
"x.	c #FF3939",
"y.	c #DE3131",
"z.	c #E73131",
"A.	c #C62929",
"B.	c #000000",
"C.	c #A52121",
"D.	c #F73131",
"E.	c #521010",
"F.	c #FF3131",
"G.	c #DE2929",
"H.	c #841818",
"I.	c #B52121",
"J.	c #8C1818",
"K.	c #EF2929",
"L.	c #C62121",
"M.	c #631010",
"N.	c #CE2121",
"O.	c #D62121",
"P.	c #DE2121",
"Q.	c #A51818",
"R.	c #EF2121",
"S.	c #7B1010",
"T.	c #BD1818",
"U.	c #841010",
"V.	c #C61818",
"W.	c #8C1010",
"X.	c #D61818",
"Y.	c #4A0808",
"Z.	c #941010",
"`.	c #DE1818",
" +	c #E71818",
".+	c #EF1818",
"++	c #A51010",
"@+	c #F71818",
"#+	c #FF1818",
"$+	c #AD1010",
"%+	c #5A0808",
"&+	c #B51010",
"*+	c #BD1010",
"=+	c #630808",
"-+	c #C61010",
";+	c #6B0808",
">+	c #CE1010",
",+	c #DE1010",
"'+	c #730808",
")+	c #7B0808",
"!+	c #F71010",
"~+	c #FF1010",
"{+	c #840808",
"]+	c #940808",
"^+	c #9C0808",
"/+	c #A50808",
"(+	c #B50808",
"_+	c #C60808",
":+	c #CE0808",
"<+	c #D60808",
"[+	c #DE0808",
"}+	c #E70808",
"|+	c #EF0808",
"1+	c #F70808",
"2+	c #FF0808",
"3+	c #310000",
"4+	c #390000",
"5+	c #420000",
"6+	c #4A0000",
"7+	c #520000",
"8+	c #5A0000",
"9+	c #630000",
"0+	c #6B0000",
"a+	c #730000",
"b+	c #7B0000",
"c+	c #840000",
"d+	c #8C0000",
"e+	c #940000",
"f+	c #9C0000",
"g+	c #A50000",
"h+	c #AD0000",
"i+	c #B50000",
"j+	c #BD0000",
"k+	c #C60000",
"l+	c #CE0000",
"m+	c #D60000",
"n+	c #DE0000",
"o+	c #E70000",
"p+	c #EF0000",
"q+	c #F70000",
"r+	c #FF0000",
"s+	c #FF3931",
"t+	c #FF3129",
"u+	c #000000",
"v+	c #FF0800",
"w+	c #FF948C",
"x+	c #000000",
"y+	c #A5525A",
"z+	c #FFA5AD",
"A+	c #FF8C94",
"B+	c #FF7B84",
"C+	c #000000",
"D+	c #000000",
"E+	c #FF2129",
"F+	c #000000",
"G+	c #000000",
"                                                                ",
"                                                                ",
"                    P E+#+~+2+r+q+p+o+}+Y                       ",
"                *.f.o.x.R.[+m+m+n+p+p+o+n+l+/.                  ",
"              8.~.].T.f+g+h+j+k+m+n+p+q+q+n+l+l+                ",
"          0 V V t.c+d+$+R.E+~+r+q+p+o+o+q+r+!+k+i+d             ",
"          Q M a+0+d...~.f.s+E+2+r+q+o+m+k+o+~+E+(+h+[           ",
"        H v 8+7+z v w+V -.8.F.#+r+q+p+n+l+j+i+#+x.h+g+          ",
"      Z v v.6+e 8 e o C V ~.o.E+2+r+p+o+m+j+h+f+F.0.f+T.        ",
"      A+I 6+h { ^ 5 5 p R ..8.s+~+6+4+4+3+g+i+f+&+f.A.e+        ",
"    -.C 7+Y.{ - + # 3 u K @.[.x.>+6+8+8+0+k+i+f+d+0.-.e+++      ",
"    Q T 7+k > +   + _ a y++.[.x.6+0+d+e+m+k+i+g+d+Q.-.I.d+      ",
"  i V w.8+e { - + % ^ k P !.d.A.;+d+i+n+m+k+i+f+d+b+-.Z c+n     ",
"  ].V a+H.z+8 ' > { | k P ,.r.Z.]+j+m+o+m+k+h+f+d+a+,.H c+q.    ",
"  f.-.c+}.C j e 8 e o C ` 7.G.>+k+m+p+o+m+k+h+f+d+a+d.H c+{+    ",
"  o.~.d+2.V H C v v H V /.s.R.|+p+o+p+n+l+j+h+e+c+0+v.C c+a+    ",
"  s+8.e+i.~...V V V ..].p.L..+r+q+n+m+m+k+i+g+e+b+9+v.v b+0+    ",
"  E+o.g+X.o.8.[.[.[.8.E.H.*+|+q+p+m+h+l+j+h+f+d+a+8+_.o b+)+    ",
"  D.E+h+i+E+F.x.x.x.H.=+]+l+q+q+o+m+h+b+i+g+e+c+0+7+J j a+n.    ",
"  G #+:+i+2+~+#+#+@+7+b+i+n+q+p+l+k+i+d+e+f+d+b+9+6+v w 0+h     ",
"    2+|+k+p+r+v+v+6+0+f+m+p+p+o+m+h+h+e+9+e+c+0+7+<.o 4.9+      ",
"    !+r+m+m+q+q+b+8+d+j+n+o+n+m+k+e+e+e+a+7+a+8+5+w e 9+U.      ",
"      q+q+n+o+o+o+p+o+n+n+m+l+k+j+h+g+e+d+a+9+6+%.j @.8+        ",
"      .+q+p+p+m+m+n+m+m+l+k+j+i+h+f+e+d+b+9+7+4+o l 0+J.        ",
"        o+p+q+q+l+k+k+k+j+i+h+g+f+e+c+a+0+7+E.v e 0+8+          ",
"        2 n+n+r+r+o+i+h+h+g+f+e+d+c+a+9+7+ .v e S.8+/           ",
"          i l+m+|+~+#+,+/+e+d+c+b+0+H.#.H v F a+8+}             ",
"              l+k+k+.+s+x.o.8.[.~...Q C P {+a+a+                ",
"                /.i+i+i+*+y.]...Z /.Q.c+b+0+&.                  ",
"                    S (+f+f+e+e+d+c+b+{+N                       ",
"                                                                ",
"                                                                "};
