/* XPM */
static char * tar_xpm[] = {
"16 16 63 1",
" 	c None",
".	c #140000",
"+	c #000000",
"@	c #190001",
"#	c #949480",
"$	c #706C60",
"%	c #E0DCC0",
"&	c #020202",
"*	c #3A3A37",
"=	c #686754",
"-	c #BAB696",
";	c #41413F",
">	c #5F5F59",
",	c #CAC2B7",
"'	c #D2CABE",
")	c #A7A296",
"!	c #B3B090",
"~	c #484844",
"{	c #84847C",
"]	c #BBB4AB",
"^	c #BCB6AC",
"/	c #CFC7BB",
"(	c #D4CCC0",
"_	c #A19D90",
":	c #4B4B48",
"<	c #83837B",
"[	c #818179",
"}	c #B1ABA2",
"|	c #AAA49B",
"1	c #AEA9A0",
"2	c #B7B1A7",
"3	c #B1ABA1",
"4	c #72726C",
"5	c #686862",
"6	c #707069",
"7	c #666660",
"8	c #6A6A64",
"9	c #ABA59D",
"0	c #9E9991",
"a	c #9E9992",
"b	c #030303",
"c	c #7D7D75",
"d	c #5E5E58",
"e	c #A49E96",
"f	c #64645E",
"g	c #74746D",
"h	c #060605",
"i	c #969289",
"j	c #BAB3A8",
"k	c #CEC6BB",
"l	c #D3CBBF",
"m	c #7A7A72",
"n	c #71716A",
"o	c #7A7A73",
"p	c #787871",
"q	c #696962",
"r	c #AAA597",
"s	c #7F7F77",
"t	c #7D7D76",
"u	c #5B5B56",
"v	c #7F7C71",
"w	c #5A5A54",
"x	c #8D897F",
"                ",
"        .       ",
"      +@#@+     ",
"   +++$$#%%+++  ",
" ++$$$$$#%%%%%++",
" &*+=$$$#%%%-;>+",
" *,')+=$#%!~>{{+",
" *]^/(_+$:>{{<[+",
"**}|123*++45678+",
" +*90a*'bc+d>7++",
" +(**e*(b6+f++gh",
" +ijk*l(+mn+opq+",
"  ++r(((+{stsu++",
"    +vj(+{{w++  ",
"     ++x+w++    ",
"       +++      "};
