/* XPM */
static char * txt_xpm[] = {
"16 16 50 1",
" 	c None",
".	c #A09F9C",
"+	c #000000",
"@	c #D1D1BC",
"#	c #919182",
"$	c #272727",
"%	c #AEAEA8",
"&	c #B7B7A5",
"*	c #D4D4BE",
"=	c #D8D8C2",
"-	c #EAEAE2",
";	c #707070",
">	c #B3B3AC",
",	c #D7D7C1",
"'	c #DBDBC4",
")	c #ACAC9B",
"!	c #DDDDD9",
"~	c #42423A",
"{	c #A5A595",
"]	c #DADAC3",
"^	c #DEDEC7",
"/	c #6B6B6B",
"(	c #616156",
"_	c #A5A594",
":	c #D9D9C3",
"<	c #E4E4CD",
"[	c #B4B4A1",
"}	c #BBBBA7",
"|	c #E0E0C9",
"1	c #E3E3CC",
"2	c #E7E7CF",
"3	c #A3A391",
"4	c #929284",
"5	c #DFDFC8",
"6	c #E2E2CB",
"7	c #EEEED5",
"8	c #F2F2D9",
"9	c #E2E2CA",
"0	c #E9E9D1",
"a	c #EDEDD5",
"b	c #F1F1D8",
"c	c #F5F5DC",
"d	c #A7A796",
"e	c #AEAE9C",
"f	c #E8E8D0",
"g	c #ECECD4",
"h	c #F0F0D7",
"i	c #A6A696",
"j	c #EBEBD3",
"k	c #9F9F8F",
"   .            ",
"                ",
"                ",
"         ++     ",
"       ++@#+    ",
"     +$%&*=+    ",
"     +-;>,')+   ",
"     +!~{]^/+   ",
"     +(_://<[+  ",
"     +}=/|12/3+ ",
"     +4/56//78+ ",
"     ++^9/0abcd+",
"      +e/fghi++ ",
"       +2j3++   ",
"       +k++     ",
"        +       "};
