/* XPM */
static char * up_xpm[] = {
"16 16 105 2",
"  	c None",
". 	c #3B7504",
"+ 	c #578928",
"@ 	c #568926",
"# 	c #41790F",
"$ 	c #A7CA87",
"% 	c #A2C77E",
"& 	c #41790E",
"* 	c #3A7404",
"= 	c #96BD72",
"- 	c #9AC572",
"; 	c #95C26A",
"> 	c #86B35B",
", 	c #3B7404",
"' 	c #78A54E",
") 	c #B0D291",
"! 	c #7DB448",
"~ 	c #76B13F",
"{ 	c #6A9C3B",
"] 	c #578A28",
"^ 	c #BBD7A0",
"/ 	c #8CBD5F",
"( 	c #80B64D",
"_ 	c #7AB344",
": 	c #5CA21A",
"< 	c #9AC471",
"[ 	c #4F841D",
"} 	c #40780D",
"| 	c #B7D49C",
"1 	c #A0C97A",
"2 	c #8BBE5A",
"3 	c #86BC51",
"4 	c #74B438",
"5 	c #53A308",
"6 	c #6CAF2C",
"7 	c #97C36E",
"8 	c #3E770A",
"9 	c #A1C480",
"0 	c #B5D597",
"a 	c #96C569",
"b 	c #91C560",
"c 	c #8BC356",
"d 	c #66B01D",
"e 	c #59AC0B",
"f 	c #59AB0B",
"g 	c #85C14D",
"h 	c #84B455",
"i 	c #7FA956",
"j 	c #C7DFB0",
"k 	c #A0CB77",
"l 	c #9ACA6C",
"m 	c #96CA63",
"n 	c #81C143",
"o 	c #5EB30D",
"p 	c #5FB50D",
"q 	c #5FB40D",
"r 	c #5FB20F",
"s 	c #9BCE6A",
"t 	c #679C35",
"u 	c #588B28",
"v 	c #CAE0B5",
"w 	c #D0E5BC",
"x 	c #CEE5B8",
"y 	c #CBE5B3",
"z 	c #97CD63",
"A 	c #68BA19",
"B 	c #64BC0F",
"C 	c #65BE10",
"D 	c #AFDC83",
"E 	c #AEDB82",
"F 	c #ACD982",
"G 	c #A6D37B",
"H 	c #4C8418",
"I 	c #3A7304",
"J 	c #3C7804",
"K 	c #CBE6B2",
"L 	c #89C94B",
"M 	c #65BD10",
"N 	c #69C311",
"O 	c #6BC712",
"P 	c #B2E184",
"Q 	c #3E7A05",
"R 	c #CAE5B0",
"S 	c #78C331",
"T 	c #67C011",
"U 	c #6CC813",
"V 	c #71CF15",
"W 	c #B4E585",
"X 	c #C8E4AD",
"Y 	c #6DBD1F",
"Z 	c #66BF10",
"` 	c #6AC512",
" .	c #6DC913",
"..	c #B3E384",
"+.	c #C5E2A9",
"@.	c #65B616",
"#.	c #63BA0F",
"$.	c #66BE10",
"%.	c #67C111",
"&.	c #B0DE83",
"*.	c #C1DFA5",
"=.	c #AAD581",
"-.	c #ABD781",
";.	c #ADDA82",
">.	c #ADD982",
"              . .               ",
"              + @               ",
"            # $ % &             ",
"          * = - ; > *           ",
"        , ' ) ! ~ ; { *         ",
"        ] ^ / ( _ : < [         ",
"      } | 1 2 3 4 5 6 7 8       ",
"    * 9 0 a b c d e f g h .     ",
"  , i j k l m n o p q r s t .   ",
"  u v w x y z A B C D E F G H   ",
". I I I J K L M N O P Q I I I . ",
"        I R S T U V W I         ",
"        I X Y Z `  ...I         ",
"        I +.@.#.$.%.&.I         ",
"        I *.=.-.F ;.>.I         ",
"        * I I I I I I ,         "};
