/* XPM */
static char * world_xpm[] = {
"16 14 112 2",
"  	c None",
". 	c #999999",
"+ 	c #818181",
"@ 	c #FFFFFF",
"# 	c #EAEAEA",
"$ 	c #F0F0F0",
"% 	c #C6C6C6",
"& 	c #EBEBEB",
"* 	c #99A5B6",
"= 	c #6D85A7",
"- 	c #5E7CA5",
"; 	c #5A7AA4",
"> 	c #607EA6",
", 	c #627999",
"' 	c #6A84A9",
") 	c #839BBB",
"! 	c #BBC9DA",
"~ 	c #DCE4ED",
"{ 	c #E6EBF4",
"] 	c #D5DFEB",
"^ 	c #B1C2D6",
"/ 	c #7E97B9",
"( 	c #5979A3",
"_ 	c #ECECEC",
": 	c #617FA6",
"< 	c #B1C0D5",
"[ 	c #E0E5EB",
"} 	c #CFD9E2",
"| 	c #BABFC4",
"1 	c #BECBDA",
"2 	c #BED4EB",
"3 	c #BECAD6",
"4 	c #D9E1E9",
"5 	c #A3B6CE",
"6 	c #7089AC",
"7 	c #AFBFD4",
"8 	c #DEE2E7",
"9 	c #CED1D3",
"0 	c #E2EFFE",
"a 	c #DEEDFB",
"b 	c #D4E5F6",
"c 	c #BCC8D4",
"d 	c #C0C6CE",
"e 	c #DBDEE0",
"f 	c #E6EBF0",
"g 	c #929FB3",
"h 	c #819ABA",
"i 	c #F0F4F8",
"j 	c #E3E4E5",
"k 	c #CAD5DF",
"l 	c #E2F1FF",
"m 	c #E3F1FF",
"n 	c #DAEAFA",
"o 	c #C6CFD8",
"p 	c #D7D9DB",
"q 	c #F4F4F5",
"r 	c #FBFBFB",
"s 	c #7B93B2",
"t 	c #B5C5D8",
"u 	c #E0E3E4",
"v 	c #CCDDEF",
"w 	c #E0EFFF",
"x 	c #E1F0FF",
"y 	c #DAEBFC",
"z 	c #C7CDD2",
"A 	c #BEC7D0",
"B 	c #A4B5C9",
"C 	c #B5BEC8",
"D 	c #EDEDED",
"E 	c #6380A8",
"F 	c #D4DDE9",
"G 	c #AABED3",
"H 	c #CCE3FA",
"I 	c #DEEEFF",
"J 	c #DFEFFF",
"K 	c #CEDBEA",
"L 	c #FDFDFD",
"M 	c #FEFEFE",
"N 	c #E2E4E6",
"O 	c #5F7EA6",
"P 	c #CCD9E7",
"Q 	c #B7C2CD",
"R 	c #C8CED4",
"S 	c #B3CCE8",
"T 	c #B5D1EE",
"U 	c #B1CEEC",
"V 	c #A9BCD1",
"W 	c #F8F9F9",
"X 	c #F1F2F3",
"Y 	c #EFEFEF",
"Z 	c #959595",
"` 	c #667FA4",
" .	c #ABBDD3",
"..	c #DCE1E5",
"+.	c #DFE1E3",
"@.	c #A2BDDA",
"#.	c #9CBDE0",
"$.	c #93B6DC",
"%.	c #84A6CA",
"&.	c #8BA7C7",
"*.	c #F5F5F5",
"=.	c #E2E2E2",
"-.	c #627CA5",
";.	c #7A95B7",
">.	c #D6DFE9",
",.	c #EDEEEF",
"'.	c #83A7CE",
").	c #80A7D1",
"!.	c #759FCB",
"~.	c #6C96C5",
"{.	c #E0E0E0",
"].	c #D3D3D3",
". + + + + + + + + + + + +       ",
"+ @ @ @ @ @ @ @ @ @ @ @ @ +     ",
"+ @ # # # # # # # # # $ @ +     ",
"+ @ # % % % % % % % % $ @ +     ",
"+ @ & # # # # # * = - ; > ,     ",
"+ @ & % % % % ' ) ! ~ { ] ^ / ( ",
"+ @ & _ _ _ : < [ } | 1 2 3 4 5 ",
"+ @ _ % % 6 7 8 9 0 a b c d e f ",
"+ @ _ _ g h i j k l m n o p q r ",
"+ @ _ % s t u v w x x y z A B C ",
"+ @ D _ E F G H I J J K L M L N ",
"+ @ @ @ O P Q R S T U V W X M Y ",
"Z + + + `  ...M +.@.#.$.%.&.*.=.",
"        -.;.>.M M ,.'.).!.~.{.]."};
