/* XPM */
static char * world_xpm[] = {
"16 16 22 1",
" 	c None",
".	c #8C8C8C",
"+	c #525252",
"@	c #212121",
"#	c #101010",
"$	c #737373",
"%	c #AFC8FF",
"&	c #3F5942",
"*	c #6B8E6F",
"=	c #818181",
"-	c #808080",
";	c #768E79",
">	c #5D5D5D",
",	c #929292",
"'	c #4D4D4D",
")	c #8A8A8A",
"!	c #4A4A4A",
"~	c #898989",
"{	c #343434",
"]	c #333333",
"^	c #535353",
"/	c #353535",
"                ",
"    .+@#@+.     ",
"   $@%&&*%@$=   ",
"  $@%%**&%%@$-  ",
" .@%%&&*%%%&@.= ",
" +%&;&*&%%&&%+>,",
" @%&;***%%*&%@')",
" #%&;**%%***&#!~",
" @%&**%%%%**&@!~",
" +%%&**%%%&&%+!~",
" $@%%%**&%%%@.'~",
" ,$@%&&&%%&@${>~",
"  =.@*&%%&@$]^= ",
"   -.+@#@+./^-  ",
"    =>'!!!'>=   ",
"     ,)~~~),    "};
